<?xml version="1.0" standalone="no"?>
<!DOCTYPE svg PUBLIC "-//W3C//DTD SVG 1.1//EN" "http://www.w3.org/Graphics/SVG/1.1/DTD/svg11.dtd" >
<svg xmlns="http://www.w3.org/2000/svg">
<metadata></metadata>
<defs>
<font id="neue_lt_pro75_bold" horiz-adv-x="1138" >
<font-face units-per-em="2048" ascent="1462" descent="-586" />
<missing-glyph horiz-adv-x="569" />
<glyph horiz-adv-x="0" />
<glyph unicode="&#xd;" horiz-adv-x="0" />
<glyph horiz-adv-x="1024" />
<glyph horiz-adv-x="1024" />
<glyph unicode=" "  horiz-adv-x="569" />
<glyph unicode="&#x09;" horiz-adv-x="569" />
<glyph unicode="&#xa0;" horiz-adv-x="569" />
<glyph unicode="!" horiz-adv-x="569" d="M125 0v315h321v-315h-321zM133 1069v393h303v-393l-80 -631h-145z" />
<glyph unicode="&#x22;" horiz-adv-x="948" d="M174 805v657h219v-657h-219zM555 805v657h219v-657h-219z" />
<glyph unicode="#" d="M68 406v184h194l37 254h-170v184h195l57 406h199l-58 -406h199l55 406h199l-55 -406h151v-184h-178l-35 -254h152v-184h-179l-55 -406h-198l55 406h-197l-57 -406h-199l58 406h-170zM461 590h198l35 254h-196z" />
<glyph unicode="$" d="M0 475h289q-2 -117 61.5 -184.5t157.5 -85.5v428q-10 4 -27.5 9t-38.5 9q-78 20 -150.5 48t-131 74t-93 114.5t-34.5 171.5q0 104 40 184t105.5 134.5t151.5 84t178 35.5v158h121v-158q92 -10 173 -40t142.5 -82t100 -130t45.5 -184h-291q-2 82 -51.5 139t-118.5 57v-362 q25 -6 50.5 -12t53.5 -15q150 -41 233 -101t121.5 -126t46 -131.5t7.5 -116.5q0 -43 -22.5 -111.5t-81 -135t-157 -118t-251.5 -61.5v-174h-121v174q-229 16 -357 141t-151 367zM324 1087q0 -68 43 -104.5t141 -58.5v333q-35 0 -67.5 -10t-59.5 -31.5t-42 -53.5t-15 -75z M629 205q37 4 76.5 17.5t71.5 38t52.5 60t20.5 85.5q0 80 -50 119.5t-171 72.5v-393z" />
<glyph unicode="%" horiz-adv-x="2048" d="M154 1057q0 84 20.5 157.5t63.5 129t108.5 87t155.5 31.5q94 0 158.5 -32.5t104.5 -89t56.5 -132t16.5 -159.5t-20.5 -155t-62.5 -122t-107.5 -79.5t-155.5 -28.5q-94 0 -159 29.5t-105 81.5t-57 125t-17 157zM362 1053q0 -33 2.5 -74t14.5 -77t38.5 -60.5t76.5 -24.5 q47 0 74.5 24.5t41 60.5t16.5 76t3 73q0 31 -3 74.5t-15.5 84.5t-38 70t-70.5 29q-49 0 -77 -27t-42 -65.5t-17.5 -83.5t-3.5 -80zM520 -43l848 1522h174l-844 -1522h-178zM1210 375q0 82 20.5 154.5t63.5 126t108.5 84t156.5 30.5q94 0 158.5 -31.5t104.5 -86t56 -128 t16 -157.5t-20.5 -156t-62.5 -124t-107.5 -83t-155.5 -31q-94 0 -158.5 32t-104.5 86t-57.5 127t-17.5 157zM1419 373q0 -33 2 -76t14.5 -81t39 -64.5t75.5 -26.5q47 0 75 26.5t41 64.5t16.5 80t3.5 75q0 31 -3.5 72.5t-15.5 79.5t-37.5 65.5t-70.5 27.5q-49 0 -77 -24.5 t-42.5 -61t-17.5 -79.5t-3 -78z" />
<glyph unicode="&#x26;" horiz-adv-x="1402" d="M66 410q0 76 26.5 141t72.5 117.5t104.5 93.5t123.5 72q-59 72 -99 143.5t-40 167.5q0 76 31.5 137t85 105.5t122 68t142.5 23.5q82 0 155.5 -22.5t128 -66.5t86 -110t31.5 -152q0 -129 -74.5 -217t-185.5 -147l189 -232q23 41 35 85.5t18 89.5h252q-10 -98 -45 -190.5 t-97 -170.5l297 -346h-356l-119 145q-88 -86 -187 -129t-224 -43q-98 0 -185.5 30t-151 85t-100 136t-36.5 186zM342 403q0 -41 17.5 -75.5t46 -60t66.5 -41t79 -15.5q78 0 136 36t110 93l-250 305q-39 -16 -76 -38.5t-65.5 -53.5t-46 -67.5t-17.5 -82.5zM518 1155 q0 -70 37 -119t78 -100q61 39 105 84t44 125q0 57 -40 98t-93 41t-92 -36t-39 -93z" />
<glyph unicode="'" horiz-adv-x="569" d="M176 805v657h219v-657h-219z" />
<glyph unicode="(" horiz-adv-x="606" d="M106 549q0 115 16.5 240.5t50.5 249.5t85 242t119 216h244q-117 -217 -170.5 -451.5t-53.5 -476.5q0 -246 52.5 -481t168.5 -459h-241q-129 211 -200 444.5t-71 475.5z" />
<glyph unicode=")" horiz-adv-x="606" d="M-12 -371q115 217 168 449.5t53 474.5q0 246 -52.5 483.5t-166.5 460.5h239q129 -211 200 -446.5t71 -477.5q0 -115 -17.5 -239.5t-51.5 -249.5t-84 -241.5t-118 -213.5h-241z" />
<glyph unicode="*" horiz-adv-x="833" d="M45 1139l55 157l232 -90v256h164v-256l237 90l55 -157l-241 -80l151 -201l-135 -100l-151 211l-144 -211l-137 100l152 201z" />
<glyph unicode="+" horiz-adv-x="1228" d="M98 408v219h408v407h219v-407h408v-219h-408v-408h-219v408h-408z" />
<glyph unicode="," horiz-adv-x="569" d="M125 0v315h321v-315q0 -70 -25.5 -128t-68.5 -101t-101 -71t-124 -38v148q63 12 106 67t39 123h-147z" />
<glyph unicode="-" horiz-adv-x="833" d="M109 434v250h616v-250h-616z" />
<glyph unicode="." horiz-adv-x="569" d="M123 0v315h321v-315h-321z" />
<glyph unicode="/" horiz-adv-x="759" d="M-20 -33l569 1530h233l-571 -1530h-231z" />
<glyph unicode="0" d="M43 723q0 209 42 351.5t113.5 228.5t167 122.5t201.5 36.5t202.5 -36.5t169.5 -122.5t115 -228.5t42 -351.5q0 -215 -42 -358.5t-115 -230.5t-169 -124t-203 -37q-106 0 -201.5 37t-167 124t-113.5 230.5t-42 358.5zM334 723q0 -61 4 -148.5t25.5 -168t68.5 -138 t135 -57.5t137.5 57.5t71 138t25.5 168t4 148.5q0 37 -1 89t-8.5 107.5t-20.5 109.5t-39.5 97t-67.5 70t-101 27q-59 0 -99 -27t-65.5 -70t-40 -97t-20.5 -109.5t-7 -107.5t-1 -89z" />
<glyph unicode="1" d="M152 930v219q76 -2 146.5 11.5t126.5 47t95 89t51 137.5h232v-1434h-291v930h-360z" />
<glyph unicode="2" d="M43 0q0 125 36 217t97.5 165t144 133t175.5 126q47 33 100 66.5t97 74.5t74 92.5t30 116.5q0 104 -60.5 162.5t-154.5 58.5q-66 0 -109 -30.5t-69.5 -77.5t-38 -105.5t-11.5 -115.5h-278q-4 123 28.5 228.5t98 184t165 122.5t228.5 44q98 0 187 -30.5t157 -88 t107.5 -141.5t39.5 -188q0 -109 -34.5 -186.5t-92 -138t-130 -110t-146.5 -97.5t-144.5 -103t-121.5 -129h678v-250h-1053z" />
<glyph unicode="3" d="M37 494h276q2 -59 18.5 -110.5t47.5 -89.5t77 -60.5t109 -22.5q98 0 166 60.5t68 164.5q0 82 -32 125t-81 62.5t-107.5 22.5t-111.5 3v205q47 -4 100.5 0t99.5 23.5t75.5 56.5t29.5 98q0 92 -61.5 141.5t-141.5 49.5q-111 0 -167 -73t-54 -183h-276q4 111 39.5 202 t100 156.5t155 101t200.5 35.5q86 0 172 -25.5t155 -76.5t112 -125t43 -170q0 -104 -50.5 -184t-150.5 -109v-4q119 -27 186.5 -115t67.5 -211q0 -113 -44 -199.5t-118 -147t-170 -91.5t-201 -31q-121 0 -220 35t-168.5 101.5t-107.5 164t-36 220.5z" />
<glyph unicode="4" d="M33 332v266l622 836h260v-863h191v-239h-191v-332h-276v332h-606zM262 571h377v498h-6z" />
<glyph unicode="5" d="M37 426h291q10 -98 73.5 -156.5t161.5 -58.5q57 0 102.5 22.5t78 61.5t50 89t17.5 103q0 55 -16.5 104.5t-49 86.5t-78.5 57.5t-104 20.5q-78 0 -127 -28t-92 -87h-262l141 793h801v-240h-592l-57 -326l4 -4q59 59 126.5 85t153.5 26q106 0 188.5 -39t138.5 -104.5 t86 -154.5t30 -190q0 -111 -43 -206t-116 -163.5t-170 -107.5t-204 -37q-104 0 -199.5 29t-169 85t-117.5 141t-46 198z" />
<glyph unicode="6" d="M43 713q0 131 30.5 265t98.5 241.5t174.5 175t259.5 67.5q92 0 172 -26.5t141.5 -76.5t100.5 -125t51 -169h-276q-14 72 -65.5 125t-127.5 53q-78 0 -130 -46t-83 -112.5t-45 -142.5t-16 -135l4 -4q59 86 139 123t184 37q92 0 181.5 -39t148.5 -109q59 -66 85 -149.5 t26 -169.5q0 -111 -37 -206t-102.5 -166t-157.5 -111t-205 -40q-164 0 -269.5 64.5t-169 169t-88 238t-24.5 268.5zM354 477q0 -49 15.5 -97t45 -86t72.5 -60.5t99 -22.5q51 0 92 22.5t69.5 59.5t43 84t14.5 96q0 51 -13.5 99.5t-40 86t-68.5 61t-97 23.5 q-59 0 -102.5 -21.5t-72 -58t-43 -85t-14.5 -101.5z" />
<glyph unicode="7" d="M80 1163v271h979v-250q-113 -98 -200 -242.5t-145.5 -305.5t-90 -327t-33.5 -309h-311q25 322 150.5 618.5t330.5 544.5h-680z" />
<glyph unicode="8" d="M29 420q0 137 70.5 229t199.5 123v4q-104 29 -157.5 109t-53.5 186q0 96 43 170t111.5 123t154.5 73.5t174 24.5q133 0 225.5 -41t148.5 -99t81 -126t25 -119q0 -106 -52.5 -186t-156.5 -115v-4q129 -29 198.5 -122t69.5 -228q0 -115 -46 -199t-122 -139t-172 -83 t-197 -28q-104 0 -201.5 27t-174 81t-122.5 138t-46 201zM319 434q0 -55 20.5 -100t54.5 -77t80 -49.5t99 -17.5q51 0 96.5 17.5t79 49.5t52 77t18.5 98q0 51 -19.5 93t-53 73t-77.5 47.5t-96 16.5q-106 0 -180 -58.5t-74 -169.5zM352 1044q0 -92 65.5 -140t153.5 -48 q92 0 153.5 48t61.5 140q0 27 -8 62t-31.5 65.5t-65.5 51t-110 20.5q-43 0 -82.5 -13t-70.5 -38t-48.5 -62t-17.5 -86z" />
<glyph unicode="9" d="M43 938q0 111 36 206t102.5 165.5t158.5 111.5t205 41q162 0 268.5 -64.5t170 -170t88 -238.5t24.5 -268q0 -133 -31 -266t-98.5 -239.5t-174 -174.5t-260.5 -68q-92 0 -171.5 26t-141 77t-100.5 123.5t-51 169.5h276q14 -72 65.5 -125.5t127.5 -53.5q80 0 131 46.5 t81.5 113t44 142t17.5 135.5l-4 4q-59 -86 -139 -123t-185 -37q-92 0 -181 39t-148 108q-59 66 -85 150t-26 170zM334 961q0 -51 13 -99.5t40 -86.5t69 -61.5t97 -23.5q57 0 101 21.5t73 58.5t43 85t14 101q0 49 -15 97.5t-45 86.5t-73 60.5t-98 22.5q-53 0 -93 -22.5 t-69 -59.5t-43 -84t-14 -96z" />
<glyph unicode=":" horiz-adv-x="569" d="M125 0v315h321v-315h-321zM125 725v315h321v-315h-321z" />
<glyph unicode=";" horiz-adv-x="569" d="M125 0v315h321v-315q0 -70 -25.5 -128t-68.5 -101t-101 -71t-124 -38v148q63 12 106 67t39 123h-147zM125 725v315h321v-315h-321z" />
<glyph unicode="&#x3c;" horiz-adv-x="1228" d="M94 397v242l1041 414v-236l-752 -299l752 -299v-233z" />
<glyph unicode="=" horiz-adv-x="1228" d="M98 188v220h1035v-220h-1035zM98 627v219h1035v-219h-1035z" />
<glyph unicode="&#x3e;" horiz-adv-x="1228" d="M94 -14v233l752 299l-752 299v236l1041 -414v-242z" />
<glyph unicode="?" d="M66 991q2 111 37.5 203t100 159.5t156 105.5t203.5 38q143 0 241.5 -40t158 -99.5t85 -129t25.5 -126.5q0 -98 -25.5 -161.5t-63.5 -109t-84 -77t-87 -63.5t-72.5 -72.5t-40.5 -102.5v-78h-276v92q0 88 24.5 148.5t61.5 101.5t80 72t79 61.5t59.5 67.5t23.5 92 q-2 94 -47.5 139t-126.5 45q-55 0 -95.5 -21.5t-66 -57t-37.5 -83.5t-12 -104h-301zM395 0v315h322v-315h-322z" />
<glyph unicode="@" horiz-adv-x="1638" d="M74 731q0 162 61.5 302.5t168 242.5t247.5 161.5t301 59.5q139 0 268 -45t227.5 -126t158 -196.5t59.5 -257.5q0 -158 -56.5 -270.5t-135.5 -184t-159.5 -105t-130.5 -33.5q-66 0 -105.5 32.5t-43.5 83.5h-4q-37 -61 -96.5 -90t-124.5 -29q-66 0 -124.5 28t-102.5 76 t-69.5 111.5t-25.5 135.5q0 96 32 190t90 168t140 119t185 45q66 0 135 -32t104 -111l33 110h168l-129 -528q-4 -20 -10.5 -44t-6.5 -44t8.5 -33.5t26.5 -13.5q43 0 87 27.5t78 77.5t55.5 118.5t21.5 152.5q0 123 -43 216.5t-118 158t-176 97t-218 32.5q-133 0 -239.5 -46 t-182.5 -127t-117 -192.5t-41 -240.5q0 -135 45 -244.5t125 -188.5t190.5 -122t243.5 -43q129 0 245 44t196 124h172q-104 -160 -268 -245t-357 -85q-164 0 -307 58.5t-250.5 161t-169 241.5t-61.5 303zM596 653q0 -82 44 -132t116 -50q55 0 101 28.5t80 72.5t52.5 99.5 t18.5 108.5q0 76 -46.5 125t-111.5 49q-55 0 -102.5 -27.5t-81 -71.5t-52 -97.5t-18.5 -104.5z" />
<glyph unicode="A" horiz-adv-x="1402" d="M-12 0l553 1462h329l547 -1462h-334l-110 326h-547l-115 -326h-323zM510 565h379l-184 537h-5z" />
<glyph unicode="B" horiz-adv-x="1441" d="M141 0v1462h688q104 0 190.5 -18.5t148 -60.5t95 -111.5t33.5 -171.5q0 -111 -50 -184.5t-148 -120.5q135 -39 201.5 -136.5t66.5 -234.5q0 -111 -43 -191.5t-115.5 -132t-166 -76t-191.5 -24.5h-709zM463 250h344q47 0 90 9t76 30.5t52 58.5t19 94q0 113 -63 161 t-168 48h-350v-401zM463 870h325q86 0 141.5 41t55.5 133q0 51 -18.5 84t-49 51.5t-70.5 25.5t-83 7h-301v-342z" />
<glyph unicode="C" horiz-adv-x="1517" d="M78 725q0 162 49 303t141 245.5t225.5 164t303.5 59.5q119 0 227.5 -35t193.5 -101.5t140 -164.5t69 -225h-311q-8 55 -36.5 101t-71.5 81t-97.5 54.5t-113.5 19.5q-109 0 -184.5 -42t-123 -113t-69 -161t-21.5 -186q0 -92 21.5 -179t69 -157t123 -111.5t184.5 -41.5 q147 0 230 90t101 237h312q-12 -137 -63.5 -247.5t-135.5 -187.5t-196.5 -119t-247.5 -42q-170 0 -303.5 59.5t-225.5 162t-141 240.5t-49 296z" />
<glyph unicode="D" horiz-adv-x="1517" d="M141 0v1462h631q141 0 263 -45t211 -135t139.5 -226t50.5 -317q0 -160 -41 -295t-124 -233t-207 -154.5t-292 -56.5h-631zM463 270h287q70 0 135 22.5t116.5 75t82 136.5t30.5 205q0 111 -21.5 199.5t-70.5 152t-130 97.5t-200 34h-229v-922z" />
<glyph unicode="E" horiz-adv-x="1327" d="M141 0v1462h1094v-270h-772v-313h708v-250h-708v-359h788v-270h-1110z" />
<glyph unicode="F" horiz-adv-x="1214" d="M141 0v1462h1028v-270h-706v-338h612v-250h-612v-604h-322z" />
<glyph unicode="G" horiz-adv-x="1554" d="M78 725q0 162 49 303t141 245.5t225.5 164t303.5 59.5q113 0 218 -33.5t189 -99.5t140.5 -162t68.5 -221h-307q-29 123 -111 184.5t-198 61.5q-109 0 -184.5 -42t-123 -113t-69 -161t-21.5 -186q0 -92 21.5 -179t69 -157t123 -111.5t184.5 -41.5q160 0 246.5 80.5 t101.5 234.5h-324v240h615v-791h-205l-33 166q-86 -111 -190.5 -155t-210.5 -44q-170 0 -303.5 59.5t-225.5 162t-141 240.5t-49 296z" />
<glyph unicode="H" horiz-adv-x="1517" d="M141 0v1462h322v-561h592v561h321v-1462h-321v631h-592v-631h-322z" />
<glyph unicode="I" horiz-adv-x="604" d="M141 0v1462h322v-1462h-322z" />
<glyph unicode="J" d="M29 418v127h290v-66q0 -53 8.5 -98t29 -77t56.5 -50t93 -18q63 0 98 22.5t50.5 58t18.5 77.5t3 81v987h321v-1001q0 -72 -14 -157t-65.5 -160.5t-147.5 -126t-260 -50.5q-92 0 -178 25.5t-153.5 80t-108.5 139.5t-41 206z" />
<glyph unicode="K" horiz-adv-x="1478" d="M141 0v1462h322v-606l571 606h402l-572 -577l627 -885h-404l-440 657l-184 -186v-471h-322z" />
<glyph unicode="L" horiz-adv-x="1214" d="M141 0v1462h322v-1192h713v-270h-1035z" />
<glyph unicode="M" horiz-adv-x="1857" d="M141 0v1462h453l342 -1005h4l324 1005h452v-1462h-301v1036h-4l-358 -1036h-248l-359 1026h-4v-1026h-301z" />
<glyph unicode="N" horiz-adv-x="1517" d="M141 0v1462h320l610 -981h4v981h301v-1462h-321l-609 979h-4v-979h-301z" />
<glyph unicode="O" horiz-adv-x="1593" d="M78 725q0 162 49 303t141 245.5t225.5 164t303.5 59.5q168 0 302 -59.5t226 -164t141.5 -245.5t49.5 -303q0 -158 -49.5 -296t-141.5 -240.5t-226 -162t-302 -59.5q-170 0 -303.5 59.5t-225.5 162t-141 240.5t-49 296zM399 725q0 -92 21.5 -179t69 -157t123 -111.5 t184.5 -41.5t184.5 41.5t122.5 111.5t68.5 157t21.5 179q0 96 -21.5 186t-68.5 161t-123 113t-184 42q-109 0 -184.5 -42t-123 -113t-69 -161t-21.5 -186z" />
<glyph unicode="P" horiz-adv-x="1366" d="M141 0v1462h660q137 0 233 -40t156.5 -105.5t88.5 -150.5t28 -173q0 -90 -28 -174t-88.5 -149.5t-156.5 -105.5t-233 -40h-338v-524h-322zM463 774h250q55 0 106 8.5t90 32t62.5 66.5t23.5 112q0 70 -23.5 113t-62.5 66.5t-90 31.5t-106 8h-250v-438z" />
<glyph unicode="Q" horiz-adv-x="1593" d="M78 725q0 162 49 303t141 245.5t225.5 164t303.5 59.5q168 0 302 -59.5t226 -164t141.5 -245.5t49.5 -303q0 -160 -49.5 -297t-141.5 -242l182 -166l-149 -155l-207 186q-72 -41 -161 -62.5t-193 -21.5q-170 0 -303.5 59.5t-225.5 162t-141 240.5t-49 296zM399 725 q0 -92 21.5 -179t69 -157t123 -111.5t184.5 -41.5q35 0 73.5 2t55.5 18l-138 125l150 160l166 -152q41 55 65.5 137t24.5 199q0 96 -21.5 186t-68.5 161t-123 113t-184 42q-109 0 -184.5 -42t-123 -113t-69 -161t-21.5 -186z" />
<glyph unicode="R" horiz-adv-x="1478" d="M141 0v1462h789q98 0 177 -31.5t135 -87t86 -129t30 -155.5q0 -129 -54.5 -223.5t-177.5 -143.5v-4q59 -16 98.5 -51t64 -81t35.5 -100.5t15 -109.5q2 -35 4.5 -82t7.5 -96t16 -93t34 -75h-322q-14 35 -21 77t-12.5 88t-8.5 94t-9 91q-16 115 -69.5 168t-174.5 53h-321 v-571h-322zM463 801h352q111 0 166 49t55 160q0 106 -55 154t-166 48h-352v-411z" />
<glyph unicode="S" horiz-adv-x="1329" d="M49 485h311q0 -74 27 -125t71 -82.5t102 -47t124 -15.5q43 0 92 7t92 27.5t72 56.5t29 91q0 59 -38 97t-99.5 63t-139.5 43t-157 39q-82 20 -160 50t-139.5 78t-99.5 116.5t-38 171.5q0 113 48.5 195.5t126 138t176 82t196.5 26.5q115 0 220.5 -25.5t187.5 -83 t130 -146.5t48 -216h-311q-4 66 -28 109t-62.5 67.5t-90 34.5t-108.5 10q-39 0 -78 -8t-70.5 -28.5t-52 -52.5t-20.5 -77q0 -43 16 -69.5t64.5 -49t133.5 -46t222 -56.5q41 -10 113.5 -31.5t144.5 -67.5t124 -125t52 -202q0 -100 -39 -186t-115.5 -148.5t-190.5 -97.5 t-263 -35q-121 0 -234.5 31t-200.5 93.5t-139 160.5q-50 94 -49 223v10z" />
<glyph unicode="T" horiz-adv-x="1251" d="M27 1192v270h1198v-270h-439v-1192h-321v1192h-438z" />
<glyph unicode="U" horiz-adv-x="1517" d="M135 553v909h322v-909q0 -59 10 -116.5t43 -102.5t91 -71.5t157 -26.5q172 0 237.5 76.5t65.5 240.5v909h321v-909q0 -297 -165.5 -441.5t-458.5 -144.5q-297 0 -460 143.5t-163 442.5z" />
<glyph unicode="V" horiz-adv-x="1290" d="M-14 1462h329l326 -1028h4l330 1028h332l-486 -1462h-362z" />
<glyph unicode="W" horiz-adv-x="1933" d="M6 1462h322l231 -995h4l254 995h301l250 -1007h4l240 1007h315l-393 -1462h-320l-247 995h-4l-244 -995h-326z" />
<glyph unicode="X" horiz-adv-x="1366" d="M-10 0l510 766l-471 696h372l287 -467l297 467h352l-469 -698l510 -764h-383l-319 506l-326 -506h-360z" />
<glyph unicode="Y" horiz-adv-x="1366" d="M-16 1462h360l342 -577l340 577h358l-542 -901v-561h-322v569z" />
<glyph unicode="Z" horiz-adv-x="1327" d="M47 0v254l784 938h-722v270h1151v-254l-785 -938h805v-270h-1233z" />
<glyph unicode="[" horiz-adv-x="681" d="M139 -371v1868h541v-229h-250v-1409h250v-230h-541z" />
<glyph unicode="\" horiz-adv-x="759" d="M-20 1497h231l571 -1530h-233z" />
<glyph unicode="]" horiz-adv-x="681" d="M2 -141h250v1409h-250v229h541v-1868h-541v230z" />
<glyph unicode="^" horiz-adv-x="1228" d="M125 645l352 789h275l352 -789h-240l-250 563l-249 -563h-240z" />
<glyph unicode="_" horiz-adv-x="1024" d="M0 -152h1024v-102h-1024v102z" />
<glyph unicode="`" horiz-adv-x="530" d="M-96 1497h319l197 -291h-203z" />
<glyph unicode="a" horiz-adv-x="1175" d="M66 289q0 121 53 185.5t132 95t171 41t170 21.5q78 10 129 34q49 23 49 80q0 96 -58 122q-54 26 -130 25q-86 0 -135.5 -37t-57.5 -123h-291q6 100 51.5 169t115 110t155.5 58t176 17q80 0 162 -11t149.5 -44t110.5 -92t43 -154v-550q0 -72 8 -137.5t29 -98.5h-295 q-8 25 -13.5 50.5t-7.5 51.5q-70 -72 -164 -100.5t-192 -28.5q-76 0 -142.5 18.5t-114.5 57.5t-75.5 98.5t-27.5 141.5zM356 301q0 -41 14.5 -66.5t39 -41t57.5 -21.5t68 -6q86 0 133 28.5t69.5 68.5t27.5 81t5 66v108q-18 -16 -46 -25.5t-59.5 -15.5t-67.5 -10t-69 -10 q-35 -6 -65.5 -16.5t-54 -28t-38 -45t-14.5 -66.5z" />
<glyph unicode="b" horiz-adv-x="1251" d="M111 0v1462h290v-532h5q53 82 144 119.5t189 37.5q80 0 158 -32.5t140.5 -100t101.5 -173t39 -251.5q0 -145 -39 -250.5t-101.5 -173t-140.5 -100.5t-158 -33q-117 0 -209 37t-139 125h-4v-135h-276zM391 528q0 -66 14.5 -127t45 -108t76.5 -75t112 -28q63 0 110.5 28 t78 75t45 108t14.5 127q0 68 -14.5 129.5t-45 108.5t-78 74.5t-110.5 27.5q-66 0 -112 -27.5t-76.5 -74.5t-45 -108.5t-14.5 -129.5z" />
<glyph unicode="c" horiz-adv-x="1175" d="M78 514q0 123 36 228.5t105.5 182t169.5 119.5t229 43q94 0 181.5 -24.5t156 -74.5t111.5 -126t49 -176h-285q-29 182 -215 182q-70 0 -116.5 -31.5t-76.5 -81.5t-42 -111.5t-12 -119.5q0 -57 12 -116.5t40 -107.5t75 -79t114 -31q104 0 160.5 58.5t71.5 157.5h280 q-29 -211 -164 -322t-346 -111q-121 0 -219 40t-167.5 112t-108.5 171t-39 218z" />
<glyph unicode="d" horiz-adv-x="1251" d="M66 539q0 106 29.5 205.5t88 175t146.5 121.5t205 46q94 0 179 -39.5t134 -117.5h4v532h291v-1462h-277v135h-4q-51 -86 -134 -124t-187 -38q-121 0 -210 47.5t-147.5 125t-88 180t-29.5 213.5zM356 530q0 -61 14.5 -122.5t46.5 -109.5t80 -78t115 -30q72 0 120 29t77 77 t41 109t12 127q0 63 -12 125t-42 108t-78 74.5t-118 28.5q-72 0 -121 -28.5t-78.5 -75.5t-43 -108.5t-13.5 -125.5z" />
<glyph unicode="e" horiz-adv-x="1175" d="M59 528q0 119 39 221.5t111 177t171 117.5t220 43q135 0 235.5 -52t164.5 -140q66 -89 94 -201q22 -88 22 -182q0 -26 -2 -53h-764q6 -141 71.5 -205t188.5 -64q88 0 151.5 44.5t78.5 93.5h256q-61 -190 -188.5 -272.5t-307.5 -82.5q-125 0 -225.5 41t-170 114 t-107.5 175.5t-38 224.5zM350 643h473q-20 111 -72.5 168t-158.5 57q-72 0 -117 -23.5t-72.5 -58t-39 -73.5t-13.5 -70z" />
<glyph unicode="f" horiz-adv-x="681" d="M0 864v195h174v82q0 141 88 231t266 90q39 0 78 -3t76 -5v-217q-53 6 -107 6q-59 0 -84.5 -27.5t-25.5 -93.5v-63h201v-195h-201v-864h-291v864h-174z" />
<glyph unicode="g" horiz-adv-x="1251" d="M78 563q0 102 29.5 197.5t87 168t142.5 115.5t195 43q104 0 183.5 -38.5t132.5 -130.5h4v141h276v-991q0 -43 -7 -94.5t-27.5 -103.5t-57.5 -100.5t-98 -86t-149.5 -60t-208.5 -22.5q-78 0 -159 19.5t-147.5 60t-110.5 105t-50 155.5h288q20 -82 80 -114t137 -32 q123 0 178.5 73t55.5 187v140h-4q-47 -84 -134 -124t-184 -40q-121 0 -205.5 42t-140 114.5t-81 170t-25.5 205.5zM369 567q0 -57 11 -113.5t38.5 -101.5t72.5 -73.5t113 -28.5q61 0 108.5 24.5t78 65.5t46 93t15.5 110q0 63 -12.5 122.5t-41 104.5t-76.5 71.5t-118 26.5 q-61 0 -105 -24.5t-74 -66.5t-43 -96t-13 -114z" />
<glyph unicode="h" horiz-adv-x="1214" d="M111 0v1462h290v-551h7q55 92 141 134t168 42q117 0 191.5 -31.5t117.5 -88t60.5 -137t17.5 -179.5v-651h-291v598q0 131 -41 195.5t-145 64.5q-119 0 -172.5 -70.5t-53.5 -232.5v-555h-290z" />
<glyph unicode="i" horiz-adv-x="528" d="M119 0v1059h291v-1059h-291zM119 1223v239h291v-239h-291z" />
<glyph unicode="j" horiz-adv-x="569" d="M-37 -123q23 -8 62 -8q45 0 78.5 17.5t33.5 76.5v1096h291v-1110q0 -82 -17.5 -141.5t-59.5 -99.5t-113.5 -59.5t-182.5 -19.5q-51 0 -92 9v239zM137 1223v239h291v-239h-291z" />
<glyph unicode="k" horiz-adv-x="1175" d="M137 0v1462h291v-784l367 381h344l-400 -389l445 -670h-353l-290 473l-113 -108v-365h-291z" />
<glyph unicode="l" horiz-adv-x="528" d="M119 0v1462h291v-1462h-291z" />
<glyph unicode="m" horiz-adv-x="1855" d="M119 0v1059h274v-144h4q57 82 138 127t186 45q100 0 183 -38.5t126 -137.5q47 70 128 123t192 53q84 0 155.5 -20t122.5 -65.5t80 -118t29 -174.5v-709h-291v600q0 53 -4 100.5t-22.5 82t-54.5 55t-97 20.5t-99.5 -23.5t-60 -61.5t-28.5 -86t-7 -97v-590h-291v594 q0 45 -2 92t-17 86t-51 62.5t-106 23.5q-23 0 -55.5 -9t-64 -35t-54 -74t-22.5 -126v-614h-291z" />
<glyph unicode="n" horiz-adv-x="1214" d="M111 0v1059h276v-148h6q55 92 143.5 134t180.5 42q117 0 191.5 -31.5t117.5 -88t60.5 -137t17.5 -179.5v-651h-291v598q0 131 -41 195.5t-145 64.5q-119 0 -172.5 -70.5t-53.5 -232.5v-555h-290z" />
<glyph unicode="o" horiz-adv-x="1251" d="M78 528q0 127 39 230.5t110.5 176.5t172 112.5t225.5 39.5t226 -39.5t173 -112.5t111 -176.5t39 -230.5t-39 -229t-111 -174t-173 -112t-226 -40t-225.5 40t-172 112t-110.5 174t-39 229zM369 528q0 -63 12 -123.5t42 -108.5t79 -77t123 -29t124 29t79.5 77t42 108.5 t12.5 123.5t-12.5 125t-42 109t-80 76.5t-123.5 29.5q-74 0 -123 -29.5t-79 -76.5t-42 -109t-12 -125z" />
<glyph unicode="p" horiz-adv-x="1251" d="M111 -371v1430h276v-135h4q53 86 135 124.5t181 38.5q125 0 215 -47t149 -124.5t88 -181t29 -216.5q0 -106 -29 -204.5t-87 -174.5t-145 -121t-204 -45q-98 0 -181 40t-136 118h-5v-502h-290zM391 526q0 -66 13.5 -126t43 -106t77.5 -75t120 -29t120 29t77.5 75t42 106.5 t12.5 125.5q0 63 -13.5 125t-44 110t-78.5 77.5t-118 29.5q-72 0 -120 -29.5t-77.5 -76.5t-42 -109.5t-12.5 -126.5z" />
<glyph unicode="q" horiz-adv-x="1251" d="M66 522q0 109 28.5 211.5t88 181t148.5 125.5t210 47q98 0 185 -37.5t136 -125.5h4v135h277v-1430h-291v504h-4q-51 -86 -143.5 -123t-190.5 -37q-74 0 -152.5 28t-144 92.5t-108.5 170t-43 258.5zM356 528q0 -63 12.5 -123.5t42 -108.5t78 -77t119.5 -29q70 0 119 28 t79 74t43 106.5t13 125.5q0 61 -13 123t-42 111t-77 79.5t-116 30.5q-72 0 -121 -28.5t-79.5 -76.5t-44 -110t-13.5 -125z" />
<glyph unicode="r" horiz-adv-x="796" d="M111 0v1059h276v-197h4q20 49 55 91t80 72t96.5 46t106.5 16q29 0 64 -10v-270q-20 4 -49 7t-56 3q-80 0 -135 -26.5t-89 -72.5t-48.5 -108.5t-14.5 -132.5v-477h-290z" />
<glyph unicode="s" horiz-adv-x="1099" d="M59 344h277q0 -47 19.5 -81t50 -55.5t70.5 -31.5t83 -10q31 0 64.5 7t61.5 22.5t46.5 41t18.5 64.5q0 33 -22.5 56.5t-64.5 42t-103.5 34t-139.5 31.5q-63 14 -123.5 33.5t-108 51.5t-76 79t-28.5 119q0 100 40 166.5t105.5 104.5t147.5 53t168 15t167 -16t144.5 -55 t105.5 -103.5t50 -162.5h-277q-6 84 -63.5 113.5t-134.5 29.5q-25 0 -53.5 -3t-52 -13.5t-40 -30t-16.5 -51.5q0 -39 28.5 -63.5t74.5 -40t105.5 -28t121.5 -26.5q63 -14 123.5 -34.5t107.5 -54.5t75.5 -84t28.5 -124q0 -104 -42 -175t-109.5 -113t-154.5 -60.5t-177 -18.5 q-92 0 -180 18.5t-156.5 61.5t-113 115t-48.5 176z" />
<glyph unicode="t" horiz-adv-x="720" d="M12 864v195h176v317h291v-317h213v-195h-213v-524q0 -74 24.5 -98.5t98.5 -24.5q25 0 47.5 2t42.5 6v-225q-37 -6 -82 -8t-88 -2q-68 0 -128 9t-106 35.5t-73 76t-27 129.5v624h-176z" />
<glyph unicode="u" horiz-adv-x="1214" d="M111 408v651h290v-598q0 -131 41 -195.5t146 -64.5q119 0 172 70.5t53 232.5v555h291v-1059h-277v147h-6q-55 -92 -143 -133t-180 -41q-117 0 -192 31t-118 88.5t-60 137t-17 178.5z" />
<glyph unicode="v" horiz-adv-x="1064" d="M10 1059h305l224 -723h4l223 723h289l-359 -1059h-323z" />
<glyph unicode="w" horiz-adv-x="1667" d="M12 1059h307l195 -719h4l176 719h283l180 -717h4l195 717h299l-334 -1059h-299l-188 711h-5l-180 -711h-301z" />
<glyph unicode="x" horiz-adv-x="1099" d="M0 0l381 557l-348 502h332l186 -277l184 277h322l-348 -496l391 -563h-332l-221 334l-221 -334h-326z" />
<glyph unicode="y" horiz-adv-x="1062" d="M-10 1059h309l240 -725h4l231 725h301l-442 -1190q-47 -129 -131 -184.5t-234 -55.5q-45 0 -89 3t-89 8v239q41 -4 84 -9q24 -3 48 -3l38 2q57 4 85 44t28 87q0 35 -13 66z" />
<glyph unicode="z" horiz-adv-x="1062" d="M45 0v219l551 621h-510v219h893v-219l-551 -621h590v-219h-973z" />
<glyph unicode="{" horiz-adv-x="681" d="M-16 473v178q25 0 56.5 9.5t60 31t49 56t20.5 88.5v385q0 70 26.5 122t64.5 85.5t82 51t79 17.5h260v-229h-111q-37 0 -58 -14.5t-33.5 -36t-15.5 -48t-3 -51.5v-311q0 -76 -23.5 -122t-55.5 -71.5t-66.5 -36t-57.5 -12.5v-6q23 -2 57.5 -13t66.5 -37t55.5 -69t23.5 -106 v-328q0 -25 3 -50.5t15.5 -47t34 -35.5t57.5 -14h111v-230h-260q-35 0 -79 17.5t-82 51.5t-64.5 86t-26.5 122v397q0 47 -20.5 80t-49 52.5t-60.5 28.5t-56 9z" />
<glyph unicode="|" horiz-adv-x="456" d="M119 -436v2046h219v-2046h-219z" />
<glyph unicode="}" horiz-adv-x="681" d="M0 -141h111q37 0 58 14t33.5 35.5t15.5 47.5t3 50v328q0 63 22.5 106t55.5 69t67.5 37t57.5 13v6q-23 2 -57.5 12.5t-67.5 36t-55.5 71.5t-22.5 122v311q0 25 -3 51.5t-15.5 48t-34 36t-57.5 14.5h-111v229h260q35 0 79 -17.5t82 -51t64.5 -86t26.5 -121.5v-385 q0 -53 20.5 -88t49 -56.5t61.5 -31t57 -9.5v-178q-25 0 -57.5 -9t-61 -28.5t-49 -52.5t-20.5 -80v-397q0 -70 -26.5 -122t-64.5 -86t-82 -51.5t-79 -17.5h-260v230z" />
<glyph unicode="~" horiz-adv-x="1228" d="M137 520q16 33 39 64.5t54.5 56.5t71.5 40t91 15q53 0 110.5 -19.5t117.5 -45.5q57 -25 112 -49.5t96 -24.5q31 0 56.5 13.5t47 34t40 47t37.5 53.5l82 -191q-23 -33 -47.5 -64.5t-55.5 -56t-68.5 -40t-84.5 -15.5q-57 0 -107.5 19.5t-101.5 48.5q-49 29 -106.5 50 t-129.5 21q-35 0 -60.5 -13t-47 -33.5t-37 -47.5t-27.5 -53z" />
<glyph d="M31 784l63 148h105q49 246 202 391q162 156 406 156q172 0 373 -103l-125 -256q-145 92 -269 92q-215 0 -286 -280h499l-63 -148h-459l-2 -86h436l-63 -147h-356q66 -324 303 -324q152 0 315 129l-2 -309q-139 -80 -315 -80q-262 0 -416 166q-143 150 -187 418h-157 l63 147h82v54q0 27 2 32h-149z" />
<glyph unicode="&#xa1;" horiz-adv-x="569" d="M125 772v315h321v-315h-321zM133 18l80 631h145l78 -631v-391h-303v391z" />
<glyph unicode="&#xa2;" d="M43 512q0 117 31.5 217t94 177t154 124t209.5 57v175h121v-175q84 0 165 -28.5t145.5 -80.5t104.5 -127t44 -167h-285q-6 74 -55 126t-119 58v-678q37 6 70 28t56.5 52.5t37.5 68.5t14 77h285q-8 -98 -46 -176t-99.5 -134.5t-142 -90t-175.5 -42.5v-206h-121v206 q-111 6 -200.5 50.5t-154 116t-99.5 167.5t-35 205zM334 541q0 -55 9 -109.5t32.5 -102.5t61.5 -84t95 -55v676q-55 -14 -93 -47t-61.5 -77t-33.5 -96t-10 -105z" />
<glyph unicode="&#xa3;" d="M43 633v174h131q-31 39 -61.5 114.5t-30.5 168.5q0 82 34 155.5t99.5 130t163.5 89t227 32.5q236 0 367 -131t131 -381h-277q-2 31 -8 77t-27.5 89t-65.5 74.5t-122 31.5q-92 0 -146.5 -51t-54.5 -137q0 -25 2.5 -47.5t9.5 -52t24.5 -68.5t47.5 -94h273v-174h-215 q10 -31 13 -61.5t3 -65.5q0 -96 -50 -165t-118 -122l4 -4q49 31 80 39t60 8q41 0 80.5 -6t80.5 -16t80 -17.5t80 -7.5t83 14.5t97 73.5l123 -207q-74 -72 -157.5 -100.5t-161.5 -28.5t-129 9.5t-95 25.5q-45 16 -90 28.5t-112 12.5q-55 0 -115.5 -14.5t-120.5 -61.5 l-127 189q43 27 85 62.5t74 78.5t52.5 93t20.5 106q0 35 -11.5 68.5t-27.5 68.5h-203z" />
<glyph unicode="&#xa4;" d="M41 305l117 119q-98 115 -99 291q0 86 23.5 164.5t75.5 130.5l-117 118l117 117l116 -115q51 43 132 69t167 26q82 0 158 -25.5t123 -66.5l119 116l125 -125l-115 -112q45 -49 68.5 -128t23.5 -165t-23.5 -164t-70.5 -135l113 -115l-113 -112l-117 118 q-51 -49 -129 -75.5t-164 -26.5q-92 0 -169.5 25.5t-131.5 74.5l-114 -119zM313 715q0 -55 16.5 -107.5t49.5 -92.5t81 -63.5t111 -23.5t110.5 24.5t78.5 65.5t46 93.5t15 107.5q0 53 -15 105.5t-46 92t-78.5 64.5t-108.5 25q-66 0 -113.5 -25t-80.5 -64.5t-49.5 -92 t-16.5 -109.5z" />
<glyph unicode="&#xa5;" d="M-16 1462h331l271 -637l264 637h332l-318 -637h195v-194h-293l-31 -60v-94h324v-194h-324v-283h-311v283h-322v194h322v94l-29 60h-293v194h195z" />
<glyph unicode="&#xa6;" horiz-adv-x="456" d="M119 -180v510h219v-510h-219zM119 842v512h219v-512h-219z" />
<glyph unicode="&#xa7;" d="M20 637q0 111 57.5 186.5t162.5 112.5q-43 47 -65.5 94t-22.5 113q0 86 37.5 152.5t98 111.5t137.5 67.5t155 22.5q90 0 168.5 -25.5t137 -77t92.5 -125t34 -167.5h-254q0 76 -46 126t-128 50q-29 0 -56.5 -9t-50 -25.5t-36 -41t-13.5 -55.5q0 -57 52 -99t129 -81 t166 -78t166 -91.5t127 -121t50 -164.5q0 -104 -57 -184t-156 -115q59 -45 86 -106.5t27 -133.5q0 -86 -39 -150.5t-101.5 -107.5t-140.5 -64.5t-155 -21.5q-98 0 -182.5 22.5t-147 71t-97 123t-34.5 179.5h254q4 -90 56 -133.5t144 -43.5q63 0 106.5 34t45.5 102 q2 59 -49 103t-130 83t-171 79t-171 92t-132.5 124t-53.5 172zM274 662q0 -29 15.5 -55.5t50.5 -45.5l369 -201q10 -4 26.5 -9t34.5 -5q20 0 37.5 11.5t30 27.5t19.5 36.5t7 37.5q0 47 -27.5 77.5t-64.5 51.5l-338 190q-12 6 -25.5 14.5t-29.5 6.5q-23 -2 -42.5 -15.5 t-32.5 -33t-21.5 -43t-8.5 -45.5z" />
<glyph unicode="&#xa8;" horiz-adv-x="530" d="M-82 1225v239h275v-239h-275zM338 1225v239h276v-239h-276z" />
<glyph unicode="&#xa9;" horiz-adv-x="1638" d="M33 731q0 174 64.5 316.5t173 242t251 153.5t297.5 54q156 0 298.5 -54t251 -153.5t173 -242t64.5 -316.5t-64.5 -315.5t-173 -240.5t-251 -153.5t-298.5 -54.5t-298 54.5t-250.5 153.5t-173 240.5t-64.5 315.5zM242 731q0 -131 45 -241.5t122.5 -190.5t183 -125 t226.5 -45q119 0 224.5 45t183.5 125t124 190.5t46 241.5t-46 241.5t-124 190.5t-183.5 125t-224.5 45q-121 0 -226.5 -45t-183 -125t-122.5 -190.5t-45 -241.5zM408 735q0 98 29.5 182t86 145.5t137 96.5t183.5 35q70 0 133 -20.5t112.5 -60.5t82 -99.5t42.5 -136.5h-159 q-16 72 -73.5 112.5t-137.5 40.5q-117 0 -178.5 -81t-61.5 -210q0 -59 17.5 -113.5t49 -94t77 -63.5t100.5 -24q86 0 141 43t66 117h166q-12 -78 -46 -137t-84.5 -101t-113 -63.5t-129.5 -21.5q-100 0 -181 34.5t-138.5 96t-89 144.5t-31.5 179z" />
<glyph unicode="&#xaa;" horiz-adv-x="704" d="M20 973q0 57 20.5 93t53.5 57.5t75 31.5t85 16q45 6 86 9.5t69.5 10.5t46 20.5t17.5 37.5q0 53 -36 66.5t-87 13.5q-35 0 -65.5 -21.5t-34.5 -68.5h-209q10 68 40 111t73 67.5t96 34.5t110 10q53 0 108.5 -7t99.5 -26.5t72 -55.5t28 -93v-340q0 -51 6 -91t18 -63h-207 l-8 32t-6 32q-45 -47 -105.5 -64.5t-115.5 -17.5q-96 0 -163 48t-67 157zM229 977q0 -45 32 -60.5t61 -15.5q51 0 80.5 15.5t45 38t19.5 49t4 51.5v41q-23 -20 -64.5 -24.5t-72.5 -12.5q-43 -10 -74 -26.5t-31 -55.5z" />
<glyph unicode="&#xab;" horiz-adv-x="909" d="M86 420v276l322 252v-246l-185 -145l185 -147v-246zM502 420v276l321 252v-246l-184 -145l184 -147v-246z" />
<glyph unicode="&#xac;" horiz-adv-x="1228" d="M98 612v219h1032v-628h-219v409h-813z" />
<glyph unicode="&#xad;" horiz-adv-x="833" d="M109 434v250h616v-250h-616z" />
<glyph unicode="&#xae;" horiz-adv-x="1638" d="M33 733q0 174 64.5 315.5t173 241t251 153.5t297.5 54q156 0 298.5 -54t251 -153.5t173 -241t64.5 -315.5q0 -176 -64.5 -317.5t-173 -240.5t-251 -153.5t-298.5 -54.5t-298 54.5t-250.5 153.5t-173 240.5t-64.5 317.5zM242 733q0 -131 45 -241.5t122.5 -191.5t183 -126 t226.5 -45q119 0 224.5 45t183.5 126t124 191.5t46 241.5t-46 240.5t-124 189.5t-183.5 125t-224.5 45q-121 0 -226.5 -45t-183 -125t-122.5 -189.5t-45 -240.5zM514 305v858h324q162 0 249 -57t87 -197q0 -59 -17.5 -101t-48.5 -68.5t-72 -41t-88 -18.5l230 -375h-179 l-208 367h-107v-367h-170zM684 805h152q74 0 121 20.5t47 98.5q0 33 -16.5 54t-42 32.5t-57.5 15.5t-61 4h-143v-225z" />
<glyph unicode="&#xaf;" horiz-adv-x="530" d="M-115 1268v153h762v-153h-762z" />
<glyph unicode="&#xb0;" horiz-adv-x="819" d="M106 1159q0 63 24 118.5t65 96.5t96 64.5t119 23.5q63 0 118.5 -23.5t96.5 -64.5t64.5 -96t23.5 -119q0 -63 -23.5 -118.5t-64.5 -96.5t-96.5 -64.5t-118.5 -23.5t-118.5 23.5t-96.5 64.5t-65 96.5t-24 118.5zM240 1159q0 -37 14 -69.5t37.5 -57t54.5 -39t64 -14.5 t63.5 14.5t54 39t38 57t14.5 69.5t-14.5 70t-38 57.5t-54.5 38.5t-63 14q-33 0 -64 -14t-54.5 -38.5t-37.5 -57.5t-14 -70z" />
<glyph unicode="&#xb1;" horiz-adv-x="1228" d="M98 0v219h1035v-219h-1035zM98 549v219h408v268h219v-268h408v-219h-408v-268h-219v268h-408z" />
<glyph unicode="&#xb2;" horiz-adv-x="802" d="M55 559q0 82 22.5 140.5t62.5 104.5t91.5 83t110.5 74q31 18 65.5 38.5t63.5 45t48.5 55t19.5 71.5q0 53 -34 90t-91 37q-43 0 -72 -18t-46 -47t-24.5 -62.5t-5.5 -64.5h-209q-2 158 90.5 257t280.5 99q63 0 121.5 -17.5t102.5 -52t70 -87t26 -119.5q0 -66 -23 -113 t-59.5 -83t-83.5 -64.5t-95.5 -58t-94.5 -63.5t-81 -81h428v-164h-684z" />
<glyph unicode="&#xb3;" horiz-adv-x="802" d="M45 868h197q4 -66 42 -114.5t115 -48.5q61 0 105.5 35.5t44.5 93.5q0 43 -20.5 67.5t-52.5 34.5t-69.5 12t-70.5 2v144q29 0 62.5 1t63.5 10t49 28.5t19 56.5q0 51 -38.5 79.5t-88.5 28.5q-66 0 -102.5 -43t-34.5 -104h-196q4 143 91 227t240 84q61 0 120 -15t105 -47 t73.5 -79t27.5 -111q0 -61 -34 -110t-101 -66v-4q78 -14 122 -67.5t44 -124.5q0 -74 -29 -129.5t-77 -93t-112.5 -56t-136.5 -18.5q-166 0 -264 84t-94 243z" />
<glyph unicode="&#xb4;" horiz-adv-x="530" d="M111 1206l196 291h322l-316 -291h-202z" />
<glyph unicode="&#xb5;" horiz-adv-x="1214" d="M111 -371v1430h290v-598q0 -131 41 -195.5t146 -64.5q119 0 172 70.5t53 232.5v555h291v-1059h-277v147h-6q-29 -45 -64.5 -77.5t-72.5 -54t-70.5 -32t-58.5 -10.5q-61 0 -98 14.5t-56 32.5v-391h-290z" />
<glyph unicode="&#xb6;" horiz-adv-x="1269" d="M4 1090q0 106 37 177.5t102.5 114.5t155.5 61.5t197 18.5h600v-1800h-209v1636h-225v-1636h-209v1069q-217 0 -333 96.5t-116 262.5z" />
<glyph unicode="&#xb7;" horiz-adv-x="569" d="M113 588q0 74 52 124t122 50q35 0 65.5 -13.5t54 -37t38 -55t14.5 -68.5q0 -33 -14.5 -63.5t-37 -55.5t-54 -39t-64.5 -14q-37 0 -69 13t-55.5 36.5t-37.5 55.5t-14 67z" />
<glyph unicode="&#xb8;" horiz-adv-x="530" d="M25 -397l43 98q33 -14 75.5 -25.5t96.5 -11.5q37 0 59.5 16.5t22.5 53.5q0 39 -24 52t-58 13q-45 0 -82 -14l-43 49l121 166h100l-80 -104l2 -5q35 14 72 15q35 0 68.5 -8.5t60 -25.5t43 -45t16.5 -65q0 -59 -21.5 -99t-55 -63.5t-76.5 -32.5t-86 -9q-49 0 -84 3t-63 9 t-53.5 14t-53.5 19z" />
<glyph unicode="&#xb9;" horiz-adv-x="802" d="M158 1120v154q49 -2 93 6t80 27.5t59.5 53.5t29.5 83h172v-885h-209v561h-225z" />
<glyph unicode="&#xba;" horiz-adv-x="751" d="M25 1114q0 162 95 255t255 93t256 -93t96 -255t-96 -254t-256 -92t-255 92t-95 254zM244 1114q0 -35 7 -68.5t23.5 -61.5t41 -45t59.5 -17t60.5 17t42 45t23.5 61.5t7 68.5t-7 70t-23.5 62.5t-42 45t-60.5 17.5t-59.5 -17.5t-41 -45t-23.5 -62.5t-7 -70z" />
<glyph unicode="&#xbb;" horiz-adv-x="909" d="M86 164v246l184 147l-184 145v246l322 -252v-276zM502 164v246l184 147l-184 145v246l321 -252v-276z" />
<glyph unicode="&#xbc;" horiz-adv-x="1826" d="M49 1120v154q49 -2 93 6t80 27.5t59.5 53.5t29.5 83h172v-885h-209v561h-225zM311 -43l848 1522h174l-844 -1522h-178zM1018 182v191l385 487h205v-514h116v-164h-116v-182h-197v182h-393zM1174 346h237v295h-4z" />
<glyph unicode="&#xbd;" horiz-adv-x="1820" d="M49 1120v154q49 -2 93 6t80 27.5t59.5 53.5t29.5 83h172v-885h-209v561h-225zM311 -43l848 1522h174l-844 -1522h-178zM1040 0q0 82 22.5 140.5t62.5 104.5t91.5 83t110.5 73q31 18 65.5 39t63.5 45.5t48.5 55t19.5 71.5q0 53 -34 90t-91 37q-43 0 -72 -18.5t-46 -47 t-24.5 -62t-5.5 -64.5h-209q-2 158 90.5 257t280.5 99q63 0 121.5 -17.5t102.5 -52t70 -87t26 -119.5q0 -66 -22.5 -113t-59.5 -83t-84 -64.5t-95.5 -58t-94.5 -63.5t-81 -81h428v-164h-684z" />
<glyph unicode="&#xbe;" horiz-adv-x="1820" d="M80 868h196q4 -66 42 -114.5t116 -48.5q61 0 105.5 35.5t44.5 93.5q0 43 -20.5 67.5t-52.5 34.5t-70 12t-70 2v144q29 0 62.5 1t63 10t49 28.5t19.5 56.5q0 51 -39 79.5t-88 28.5q-66 0 -102.5 -43t-34.5 -104h-197q4 143 91.5 227t240.5 84q61 0 119.5 -15t105 -47 t74 -79t27.5 -111q0 -61 -34 -110t-101 -66v-4q78 -14 122 -67.5t44 -124.5q0 -74 -29 -129.5t-77 -93t-112.5 -56t-136.5 -18.5q-166 0 -264 84t-94 243zM489 -43l848 1522h174l-843 -1522h-179zM1059 182v191l385 487h205v-514h116v-164h-116v-182h-197v182h-393z M1214 346h238v295h-4z" />
<glyph unicode="&#xbf;" d="M66 -4q0 96 25.5 160.5t63.5 108.5t84 76t87 63.5t72.5 72.5t39.5 103v77h277v-92q0 -88 -24.5 -148.5t-61.5 -101.5t-80 -71.5t-79 -61t-60.5 -67.5t-22.5 -92q2 -92 47 -137.5t127 -45.5q53 0 92 21.5t64.5 57.5t38 84t12.5 101h301q-2 -109 -38 -200.5t-100.5 -159.5 t-154.5 -105.5t-201 -37.5q-145 0 -242 40t-156.5 99t-85 128t-25.5 128zM422 772v315h321v-315h-321z" />
<glyph unicode="&#xc0;" horiz-adv-x="1402" d="M-12 0l553 1462h329l547 -1462h-334l-110 326h-547l-115 -326h-323zM328 1886h321l197 -291h-203zM510 565h379l-184 537h-5z" />
<glyph unicode="&#xc1;" horiz-adv-x="1402" d="M-12 0l553 1462h329l547 -1462h-334l-110 326h-547l-115 -326h-323zM510 565h379l-184 537h-5zM559 1595l197 291h321l-315 -291h-203z" />
<glyph unicode="&#xc2;" horiz-adv-x="1402" d="M-12 0l553 1462h329l547 -1462h-334l-110 326h-547l-115 -326h-323zM350 1595l228 291h266l225 -291h-240l-127 166l-131 -166h-221zM510 565h379l-184 537h-5z" />
<glyph unicode="&#xc3;" horiz-adv-x="1402" d="M-12 0l553 1462h329l547 -1462h-334l-110 326h-547l-115 -326h-323zM330 1616q6 45 23.5 89t48 80t72.5 58.5t95 22.5q31 0 62 -7.5t86 -29.5q35 -14 68.5 -24.5t64.5 -10.5q37 0 57.5 15.5t32.5 56.5h141q-10 -43 -23.5 -84t-38 -74t-64.5 -53.5t-103 -22.5 q-39 -2 -70.5 5.5t-95.5 29.5q-51 18 -79.5 26.5t-59.5 8.5q-39 0 -60.5 -23.5t-31.5 -62.5h-125zM510 565h379l-184 537h-5z" />
<glyph unicode="&#xc4;" horiz-adv-x="1402" d="M-12 0l553 1462h329l547 -1462h-334l-110 326h-547l-115 -326h-323zM358 1614v239h277v-239h-277zM510 565h379l-184 537h-5zM780 1614v239h277v-239h-277z" />
<glyph unicode="&#xc5;" horiz-adv-x="1402" d="M-12 0l553 1462h329l547 -1462h-334l-110 326h-547l-115 -326h-323zM455 1774q0 51 19.5 97t53 80t78.5 53t99 19q51 0 97 -19t81 -53t54 -80t19 -97q0 -53 -19 -98.5t-54 -79t-81 -52t-97 -18.5q-53 0 -98.5 18.5t-79 52t-53 79t-19.5 98.5zM510 565h379l-184 537h-5z M575 1774q0 -59 35 -99.5t95 -40.5q59 0 95 40t36 100q0 59 -36 99t-95 40t-94.5 -40t-35.5 -99z" />
<glyph unicode="&#xc6;" horiz-adv-x="2009" d="M-20 0l696 1462h1241v-270h-680v-313h639v-250h-639v-359h696v-270h-1007v326h-459l-148 -326h-339zM573 565h353v627h-70z" />
<glyph unicode="&#xc7;" horiz-adv-x="1517" d="M78 725q0 162 49 303t141 245.5t225.5 164t303.5 59.5q119 0 227.5 -35t193.5 -101.5t140 -164.5t69 -225h-311q-8 55 -36.5 101t-71.5 81t-97.5 54.5t-113.5 19.5q-109 0 -184.5 -42t-123 -113t-69 -161t-21.5 -186q0 -92 21.5 -179t69 -157t123 -111.5t184.5 -41.5 q147 0 230 90t101 237h312q-12 -137 -63.5 -247.5t-135.5 -187.5t-196.5 -119t-245.5 -42l-54 -71l3 -5q35 14 71 15q35 0 69 -8.5t60.5 -25.5t43 -45t16.5 -65q0 -59 -21.5 -99t-55.5 -63.5t-77 -32.5t-86 -9q-49 0 -84 3t-62.5 9t-53 14t-54.5 19l43 98q33 -14 76 -25.5 t96 -11.5q37 0 59.5 16.5t22.5 53.5q0 39 -23.5 52t-58.5 13q-45 0 -82 -14l-43 49l98 137q-111 12 -208 54q-98 43 -176 113.5t-131.5 160.5t-81 197.5t-27.5 228.5z" />
<glyph unicode="&#xc8;" horiz-adv-x="1327" d="M141 0v1462h1094v-270h-772v-313h708v-250h-708v-359h788v-270h-1110zM334 1886h321l197 -291h-203z" />
<glyph unicode="&#xc9;" horiz-adv-x="1327" d="M141 0v1462h1094v-270h-772v-313h708v-250h-708v-359h788v-270h-1110zM571 1595l197 291h322l-316 -291h-203z" />
<glyph unicode="&#xca;" horiz-adv-x="1327" d="M141 0v1462h1094v-270h-772v-313h708v-250h-708v-359h788v-270h-1110zM322 1595l227 291h266l225 -291h-239l-127 166l-131 -166h-221z" />
<glyph unicode="&#xcb;" horiz-adv-x="1327" d="M141 0v1462h1094v-270h-772v-313h708v-250h-708v-359h788v-270h-1110zM346 1614v239h277v-239h-277zM768 1614v239h276v-239h-276z" />
<glyph unicode="&#xcc;" horiz-adv-x="604" d="M-53 1886h319l197 -291h-203zM141 0v1462h322v-1462h-322z" />
<glyph unicode="&#xcd;" horiz-adv-x="604" d="M139 1595l197 291h321l-315 -291h-203zM141 0v1462h322v-1462h-322z" />
<glyph unicode="&#xce;" horiz-adv-x="604" d="M-55 1595l225 291h266l226 -291h-240l-127 166l-131 -166h-219zM141 0v1462h322v-1462h-322z" />
<glyph unicode="&#xcf;" horiz-adv-x="604" d="M-47 1614v239h274v-239h-274zM141 0v1462h322v-1462h-322zM373 1614v239h276v-239h-276z" />
<glyph unicode="&#xd0;" horiz-adv-x="1517" d="M6 637v237h135v588h631q141 0 263 -45t211 -135t139.5 -226t50.5 -317q0 -160 -41 -295t-124 -233t-207 -154.5t-292 -56.5h-631v637h-135zM463 270h287q70 0 135 22.5t116.5 75t82 136.5t30.5 205q0 111 -21.5 199.5t-70.5 152t-130 97.5t-200 34h-229v-318h328v-239 h-328v-365z" />
<glyph unicode="&#xd1;" horiz-adv-x="1517" d="M141 0v1462h320l610 -981h4v981h301v-1462h-321l-609 979h-4v-979h-301zM391 1616q6 45 23.5 89t48.5 80t73 58.5t95 22.5q31 0 61.5 -7.5t85.5 -29.5q35 -14 69 -24.5t64 -10.5q37 0 57.5 15.5t32.5 56.5h142q-10 -43 -23.5 -84t-38 -74t-64.5 -53.5t-104 -22.5 q-39 -2 -70.5 5.5t-94.5 29.5q-51 18 -80 26.5t-60 8.5q-39 0 -60.5 -23.5t-31.5 -62.5h-125z" />
<glyph unicode="&#xd2;" horiz-adv-x="1593" d="M78 725q0 162 49 303t141 245.5t225.5 164t303.5 59.5q168 0 302 -59.5t226 -164t141.5 -245.5t49.5 -303q0 -158 -49.5 -296t-141.5 -240.5t-226 -162t-302 -59.5q-170 0 -303.5 59.5t-225.5 162t-141 240.5t-49 296zM399 725q0 -92 21.5 -179t69 -157t123 -111.5 t184.5 -41.5t184.5 41.5t122.5 111.5t68.5 157t21.5 179q0 96 -21.5 186t-68.5 161t-123 113t-184 42q-109 0 -184.5 -42t-123 -113t-69 -161t-21.5 -186zM408 1886h321l197 -291h-203z" />
<glyph unicode="&#xd3;" horiz-adv-x="1593" d="M78 725q0 162 49 303t141 245.5t225.5 164t303.5 59.5q168 0 302 -59.5t226 -164t141.5 -245.5t49.5 -303q0 -158 -49.5 -296t-141.5 -240.5t-226 -162t-302 -59.5q-170 0 -303.5 59.5t-225.5 162t-141 240.5t-49 296zM399 725q0 -92 21.5 -179t69 -157t123 -111.5 t184.5 -41.5t184.5 41.5t122.5 111.5t68.5 157t21.5 179q0 96 -21.5 186t-68.5 161t-123 113t-184 42q-109 0 -184.5 -42t-123 -113t-69 -161t-21.5 -186zM686 1595l197 291h321l-315 -291h-203z" />
<glyph unicode="&#xd4;" horiz-adv-x="1593" d="M78 725q0 162 49 303t141 245.5t225.5 164t303.5 59.5q168 0 302 -59.5t226 -164t141.5 -245.5t49.5 -303q0 -158 -49.5 -296t-141.5 -240.5t-226 -162t-302 -59.5q-170 0 -303.5 59.5t-225.5 162t-141 240.5t-49 296zM399 725q0 -92 21.5 -179t69 -157t123 -111.5 t184.5 -41.5t184.5 41.5t122.5 111.5t68.5 157t21.5 179q0 96 -21.5 186t-68.5 161t-123 113t-184 42q-109 0 -184.5 -42t-123 -113t-69 -161t-21.5 -186zM451 1595l227 291h266l225 -291h-239l-127 166l-131 -166h-221z" />
<glyph unicode="&#xd5;" horiz-adv-x="1593" d="M78 725q0 162 49 303t141 245.5t225.5 164t303.5 59.5q168 0 302 -59.5t226 -164t141.5 -245.5t49.5 -303q0 -158 -49.5 -296t-141.5 -240.5t-226 -162t-302 -59.5q-170 0 -303.5 59.5t-225.5 162t-141 240.5t-49 296zM399 725q0 -92 21.5 -179t69 -157t123 -111.5 t184.5 -41.5t184.5 41.5t122.5 111.5t68.5 157t21.5 179q0 96 -21.5 186t-68.5 161t-123 113t-184 42q-109 0 -184.5 -42t-123 -113t-69 -161t-21.5 -186zM422 1616q6 45 23.5 89t48 80t72.5 58.5t96 22.5q31 0 61.5 -7.5t85.5 -29.5q35 -14 68.5 -24.5t64.5 -10.5 q37 0 57.5 15.5t32.5 56.5h142q-10 -43 -23.5 -84t-38.5 -74t-64.5 -53.5t-103.5 -22.5q-39 -2 -70.5 5.5t-95.5 29.5q-51 18 -79.5 26.5t-59.5 8.5q-39 0 -60.5 -23.5t-31.5 -62.5h-125z" />
<glyph unicode="&#xd6;" horiz-adv-x="1593" d="M78 725q0 162 49 303t141 245.5t225.5 164t303.5 59.5q168 0 302 -59.5t226 -164t141.5 -245.5t49.5 -303q0 -158 -49.5 -296t-141.5 -240.5t-226 -162t-302 -59.5q-170 0 -303.5 59.5t-225.5 162t-141 240.5t-49 296zM399 725q0 -92 21.5 -179t69 -157t123 -111.5 t184.5 -41.5t184.5 41.5t122.5 111.5t68.5 157t21.5 179q0 96 -21.5 186t-68.5 161t-123 113t-184 42q-109 0 -184.5 -42t-123 -113t-69 -161t-21.5 -186zM442 1614v239h277v-239h-277zM864 1614v239h277v-239h-277z" />
<glyph unicode="&#xd7;" horiz-adv-x="1228" d="M131 190l330 328l-326 328l156 155l325 -327l328 327l156 -155l-330 -328l330 -328l-156 -155l-328 330l-329 -330z" />
<glyph unicode="&#xd8;" horiz-adv-x="1593" d="M70 20l176 195q-86 104 -127 233.5t-41 276.5q0 162 49 303t141 245.5t225.5 164t303.5 59.5q141 0 256.5 -41t203.5 -117l164 183l103 -90l-172 -191q80 -104 122 -233t42 -283q0 -158 -49.5 -296t-141.5 -240.5t-226 -162t-302 -59.5q-141 0 -256 41t-201 113 l-170 -187zM399 725q0 -72 13.5 -142.5t44.5 -133.5l606 673q-47 47 -112.5 76t-153.5 29q-109 0 -184.5 -42t-123 -113t-69 -161t-21.5 -186zM535 336q47 -47 111.5 -73.5t150.5 -26.5q109 0 184.5 41.5t122.5 111.5t68.5 157t21.5 179q0 74 -13.5 144.5t-41.5 134.5z" />
<glyph unicode="&#xd9;" horiz-adv-x="1517" d="M135 553v909h322v-909q0 -59 10 -116.5t43 -102.5t91 -71.5t157 -26.5q172 0 237.5 76.5t65.5 240.5v909h321v-909q0 -297 -165.5 -441.5t-458.5 -144.5q-297 0 -460 143.5t-163 442.5zM354 1886h322l196 -291h-202z" />
<glyph unicode="&#xda;" horiz-adv-x="1517" d="M135 553v909h322v-909q0 -59 10 -116.5t43 -102.5t91 -71.5t157 -26.5q172 0 237.5 76.5t65.5 240.5v909h321v-909q0 -297 -165.5 -441.5t-458.5 -144.5q-297 0 -460 143.5t-163 442.5zM645 1595l197 291h321l-315 -291h-203z" />
<glyph unicode="&#xdb;" horiz-adv-x="1517" d="M135 553v909h322v-909q0 -59 10 -116.5t43 -102.5t91 -71.5t157 -26.5q172 0 237.5 76.5t65.5 240.5v909h321v-909q0 -297 -165.5 -441.5t-458.5 -144.5q-297 0 -460 143.5t-163 442.5zM403 1595l228 291h266l225 -291h-239l-127 166l-131 -166h-222z" />
<glyph unicode="&#xdc;" horiz-adv-x="1517" d="M135 553v909h322v-909q0 -59 10 -116.5t43 -102.5t91 -71.5t157 -26.5q172 0 237.5 76.5t65.5 240.5v909h321v-909q0 -297 -165.5 -441.5t-458.5 -144.5q-297 0 -460 143.5t-163 442.5zM410 1614v239h276v-239h-276zM831 1614v239h277v-239h-277z" />
<glyph unicode="&#xdd;" horiz-adv-x="1366" d="M-16 1462h360l342 -577l340 577h358l-542 -901v-561h-322v569zM575 1595l197 291h322l-316 -291h-203z" />
<glyph unicode="&#xde;" horiz-adv-x="1366" d="M141 0v1462h322v-198h338q137 0 233 -40t156.5 -105.5t88.5 -150.5t28 -173q0 -90 -28 -174t-88.5 -149.5t-156.5 -105.5t-233 -40h-338v-326h-322zM463 575h250q55 0 106 8.5t90 32t62.5 66.5t23.5 113t-23.5 112.5t-62.5 66t-90 32t-106 8.5h-250v-439z" />
<glyph unicode="&#xdf;" horiz-adv-x="1251" d="M115 0v1006q0 86 17.5 173t69.5 157.5t146 115.5t248 45q92 0 176 -23.5t148.5 -71.5t102.5 -123t38 -175q0 -98 -52.5 -178t-138.5 -107v-4q68 -14 117 -48t83 -83t50.5 -109.5t16.5 -125.5q0 -96 -33 -182.5t-92.5 -151t-140 -103.5t-179.5 -39q-86 0 -168 13v235 q20 -6 41 -8t43 -2q51 0 95.5 19.5t76 53t49 79t17.5 96.5q0 111 -60.5 180.5t-189.5 69.5q-16 0 -34.5 -1t-37.5 -3v192q12 -2 23.5 -3t21.5 -1q41 0 80 10t69 32.5t48 57.5t18 82q0 63 -22.5 100t-53 55.5t-64.5 22.5t-56 4q-88 0 -135 -54t-47 -146v-1057h-291z" />
<glyph unicode="&#xe0;" horiz-adv-x="1175" d="M66 289q0 121 53 185.5t132 95t171 41t170 21.5t129 34.5t49 83.5q-4 92 -57.5 117.5t-130.5 25.5q-86 0 -135.5 -37t-57.5 -123h-291q6 100 51.5 169t115 110t155.5 58t176 17q80 0 162 -11t149.5 -44t110.5 -92t43 -154v-550q0 -72 8 -137.5t29 -98.5h-295 q-8 25 -13.5 50.5t-7.5 51.5q-70 -72 -164 -100.5t-192 -28.5q-76 0 -142.5 18.5t-114.5 57.5t-75.5 98.5t-27.5 141.5zM262 1497h322l196 -291h-202zM356 301q0 -41 14.5 -66.5t39 -41t57.5 -21.5t68 -6q86 0 133 28.5t69.5 68.5t27.5 81t5 66v108q-18 -16 -46 -25.5 t-59.5 -15.5t-67.5 -10t-69 -10q-35 -6 -65.5 -16.5t-54 -28t-38 -45t-14.5 -66.5z" />
<glyph unicode="&#xe1;" horiz-adv-x="1175" d="M66 289q0 121 53 185.5t132 95t171 41t170 21.5t129 34.5t49 83.5q-4 92 -57.5 117.5t-130.5 25.5q-86 0 -135.5 -37t-57.5 -123h-291q6 100 51.5 169t115 110t155.5 58t176 17q80 0 162 -11t149.5 -44t110.5 -92t43 -154v-550q0 -72 8 -137.5t29 -98.5h-295 q-8 25 -13.5 50.5t-7.5 51.5q-70 -72 -164 -100.5t-192 -28.5q-76 0 -142.5 18.5t-114.5 57.5t-75.5 98.5t-27.5 141.5zM356 301q0 -41 14.5 -66.5t39 -41t57.5 -21.5t68 -6q86 0 133 28.5t69.5 68.5t27.5 81t5 66v108q-18 -16 -46 -25.5t-59.5 -15.5t-67.5 -10t-69 -10 q-35 -6 -65.5 -16.5t-54 -28t-38 -45t-14.5 -66.5zM467 1206l197 291h321l-315 -291h-203z" />
<glyph unicode="&#xe2;" horiz-adv-x="1175" d="M66 289q0 121 53 185.5t132 95t171 41t170 21.5t129 34.5t49 83.5q-4 92 -57.5 117.5t-130.5 25.5q-86 0 -135.5 -37t-57.5 -123h-291q6 100 51.5 169t115 110t155.5 58t176 17q80 0 162 -11t149.5 -44t110.5 -92t43 -154v-550q0 -72 8 -137.5t29 -98.5h-295 q-8 25 -13.5 50.5t-7.5 51.5q-70 -72 -164 -100.5t-192 -28.5q-76 0 -142.5 18.5t-114.5 57.5t-75.5 98.5t-27.5 141.5zM240 1206l227 291h266l225 -291h-239l-127 166l-131 -166h-221zM356 301q0 -41 14.5 -66.5t39 -41t57.5 -21.5t68 -6q86 0 133 28.5t69.5 68.5t27.5 81 t5 66v108q-18 -16 -46 -25.5t-59.5 -15.5t-67.5 -10t-69 -10q-35 -6 -65.5 -16.5t-54 -28t-38 -45t-14.5 -66.5z" />
<glyph unicode="&#xe3;" horiz-adv-x="1175" d="M66 289q0 121 53 185.5t132 95t171 41t170 21.5t129 34.5t49 83.5q-4 92 -57.5 117.5t-130.5 25.5q-86 0 -135.5 -37t-57.5 -123h-291q6 100 51.5 169t115 110t155.5 58t176 17q80 0 162 -11t149.5 -44t110.5 -92t43 -154v-550q0 -72 8 -137.5t29 -98.5h-295 q-8 25 -13.5 50.5t-7.5 51.5q-70 -72 -164 -100.5t-192 -28.5q-76 0 -142.5 18.5t-114.5 57.5t-75.5 98.5t-27.5 141.5zM221 1227q6 45 23.5 89t48.5 80t73 58.5t95 22.5q31 0 61.5 -7.5t85.5 -29.5q35 -14 69 -24.5t64 -10.5q37 0 57.5 15.5t32.5 56.5h142 q-10 -43 -23.5 -84t-38 -74t-64.5 -53.5t-104 -22.5q-39 -2 -70.5 5t-94.5 30q-51 18 -80 26.5t-60 8.5q-39 0 -60.5 -23.5t-31.5 -62.5h-125zM356 301q0 -41 14.5 -66.5t39 -41t57.5 -21.5t68 -6q86 0 133 28.5t69.5 68.5t27.5 81t5 66v108q-18 -16 -46 -25.5t-59.5 -15.5 t-67.5 -10t-69 -10q-35 -6 -65.5 -16.5t-54 -28t-38 -45t-14.5 -66.5z" />
<glyph unicode="&#xe4;" horiz-adv-x="1175" d="M66 289q0 121 53 185.5t132 95t171 41t170 21.5t129 34.5t49 83.5q-4 92 -57.5 117.5t-130.5 25.5q-86 0 -135.5 -37t-57.5 -123h-291q6 100 51.5 169t115 110t155.5 58t176 17q80 0 162 -11t149.5 -44t110.5 -92t43 -154v-550q0 -72 8 -137.5t29 -98.5h-295 q-8 25 -13.5 50.5t-7.5 51.5q-70 -72 -164 -100.5t-192 -28.5q-76 0 -142.5 18.5t-114.5 57.5t-75.5 98.5t-27.5 141.5zM250 1225v239h276v-239h-276zM356 301q0 -41 14.5 -66.5t39 -41t57.5 -21.5t68 -6q86 0 133 28.5t69.5 68.5t27.5 81t5 66v108q-18 -16 -46 -25.5 t-59.5 -15.5t-67.5 -10t-69 -10q-35 -6 -65.5 -16.5t-54 -28t-38 -45t-14.5 -66.5zM672 1225v239h276v-239h-276z" />
<glyph unicode="&#xe5;" horiz-adv-x="1175" d="M66 289q0 121 53 185.5t132 95t171 41t170 21.5t129 34.5t49 83.5q-4 92 -57.5 117.5t-130.5 25.5q-86 0 -135.5 -37t-57.5 -123h-291q6 100 51.5 169t115 110t155.5 58t176 17q80 0 162 -11t149.5 -44t110.5 -92t43 -154v-550q0 -72 8 -137.5t29 -98.5h-295 q-8 25 -13.5 50.5t-7.5 51.5q-70 -72 -164 -100.5t-192 -28.5q-76 0 -142.5 18.5t-114.5 57.5t-75.5 98.5t-27.5 141.5zM346 1401q0 51 19.5 97t53.5 80t79 53.5t98 19.5q51 0 97 -19.5t81 -53.5t54.5 -80t19.5 -97q0 -53 -19.5 -98.5t-54.5 -79t-81 -52t-97 -18.5 q-53 0 -98 18.5t-79 52t-53.5 79t-19.5 98.5zM356 301q0 -41 14.5 -66.5t39 -41t57.5 -21.5t68 -6q86 0 133 28.5t69.5 68.5t27.5 81t5 66v108q-18 -16 -46 -25.5t-59.5 -15.5t-67.5 -10t-69 -10q-35 -6 -65.5 -16.5t-54 -28t-38 -45t-14.5 -66.5zM467 1401q0 -59 35 -99 t94 -40t95 39.5t36 99.5q0 59 -36 99t-95 40t-94 -40t-35 -99z" />
<glyph unicode="&#xe6;" horiz-adv-x="1857" d="M78 287q0 90 30.5 148.5t81 94t114 53t128.5 27.5q92 14 159.5 23.5t112 24t64.5 37t20 63.5t-16 67.5t-43 42t-60.5 20.5t-68.5 5q-86 0 -142.5 -36t-60.5 -128h-291q4 100 48.5 169t113 111t157.5 60t181 18q45 0 95.5 -7t97.5 -23.5t88 -44t69 -68.5 q61 72 143.5 107.5t211.5 35.5q131 0 224 -52t151.5 -139t85 -200.5t26.5 -236.5h-756q-2 -53 14.5 -105.5t49.5 -93.5t80 -67.5t108 -26.5q98 0 147.5 44t63.5 122h283q-23 -84 -70 -150.5t-110.5 -112.5t-142.5 -71t-165 -25q-115 0 -221 41t-174 138q-37 -49 -87 -83 t-106.5 -55.5t-118 -31t-120.5 -9.5q-76 0 -146.5 15.5t-126 52.5t-89 97.5t-33.5 148.5zM369 303q0 -41 15 -66.5t41 -42t57.5 -22.5t66.5 -6q39 0 82 12t77.5 39t57 68t22.5 100v131q-27 -23 -68.5 -33t-87.5 -17t-93 -14.5t-85 -23.5t-61.5 -46t-23.5 -79zM1042 643h465 q0 49 -14 94t-44 80t-72 55.5t-97 20.5t-99 -20.5t-75 -55.5t-47.5 -80t-16.5 -94z" />
<glyph unicode="&#xe7;" horiz-adv-x="1175" d="M78 514q0 123 36 228.5t105.5 182t169.5 119.5t229 43q94 0 181.5 -24.5t156 -74.5t111.5 -126t49 -176h-285q-29 182 -215 182q-70 0 -116.5 -31.5t-76.5 -81.5t-42 -111.5t-12 -119.5q0 -57 12 -116.5t40 -107.5t75 -79t114 -31q104 0 160.5 58.5t71.5 157.5h280 q-27 -209 -164 -324q-123 -98 -317 -109l-57 -77l2 -5q35 14 71 15q35 0 69 -8.5t60.5 -25.5t43 -45t16.5 -65q0 -59 -21.5 -99t-55.5 -63.5t-77 -32.5t-86 -9q-49 0 -84 3t-62.5 9t-53 14t-54.5 19l43 98q33 -14 76 -25.5t96 -11.5q37 0 59.5 16.5t22.5 53.5q0 39 -23.5 52 t-58.5 13q-45 0 -82 -14l-43 49l103 143q-84 10 -152 33q-147 59 -231 191.5t-84 312.5z" />
<glyph unicode="&#xe8;" horiz-adv-x="1175" d="M59 528q0 119 39 221.5t111 177t171 117.5t220 43q135 0 235.5 -52t165 -140t93 -200.5t20.5 -235.5h-764q6 -141 71.5 -205t188.5 -64q88 0 151.5 44.5t78.5 93.5h256q-61 -190 -188.5 -272.5t-307.5 -82.5q-125 0 -225.5 41t-170 114t-107.5 175.5t-38 224.5zM213 1497 h322l196 -291h-203zM350 643h473q-20 111 -72.5 168t-158.5 57q-72 0 -117 -23.5t-72.5 -58t-39 -73.5t-13.5 -70z" />
<glyph unicode="&#xe9;" horiz-adv-x="1175" d="M59 528q0 119 39 221.5t111 177t171 117.5t220 43q135 0 235.5 -52t165 -140t93 -200.5t20.5 -235.5h-764q6 -141 71.5 -205t188.5 -64q88 0 151.5 44.5t78.5 93.5h256q-61 -190 -188.5 -272.5t-307.5 -82.5q-125 0 -225.5 41t-170 114t-107.5 175.5t-38 224.5zM350 643 h473q-20 111 -72.5 168t-158.5 57q-72 0 -117 -23.5t-72.5 -58t-39 -73.5t-13.5 -70zM489 1206l197 291h322l-316 -291h-203z" />
<glyph unicode="&#xea;" horiz-adv-x="1175" d="M59 528q0 119 39 221.5t111 177t171 117.5t220 43q135 0 235.5 -52t165 -140t93 -200.5t20.5 -235.5h-764q6 -141 71.5 -205t188.5 -64q88 0 151.5 44.5t78.5 93.5h256q-61 -190 -188.5 -272.5t-307.5 -82.5q-125 0 -225.5 41t-170 114t-107.5 175.5t-38 224.5zM242 1206 l227 291h266l226 -291h-240l-127 166l-131 -166h-221zM350 643h473q-20 111 -72.5 168t-158.5 57q-72 0 -117 -23.5t-72.5 -58t-39 -73.5t-13.5 -70z" />
<glyph unicode="&#xeb;" horiz-adv-x="1175" d="M59 528q0 119 39 221.5t111 177t171 117.5t220 43q135 0 235.5 -52t165 -140t93 -200.5t20.5 -235.5h-764q6 -141 71.5 -205t188.5 -64q88 0 151.5 44.5t78.5 93.5h256q-61 -190 -188.5 -272.5t-307.5 -82.5q-125 0 -225.5 41t-170 114t-107.5 175.5t-38 224.5zM250 1225 v239h276v-239h-276zM350 643h473q-20 111 -72.5 168t-158.5 57q-72 0 -117 -23.5t-72.5 -58t-39 -73.5t-13.5 -70zM672 1225v239h276v-239h-276z" />
<glyph unicode="&#xec;" horiz-adv-x="528" d="M-106 1497h319l197 -291h-203zM119 0v1059h291v-1059h-291z" />
<glyph unicode="&#xed;" horiz-adv-x="528" d="M119 0v1059h291v-1059h-291zM119 1206l196 291h322l-315 -291h-203z" />
<glyph unicode="&#xee;" horiz-adv-x="528" d="M-88 1206l225 291h266l226 -291h-240l-127 166l-131 -166h-219zM119 0v1059h291v-1059h-291z" />
<glyph unicode="&#xef;" horiz-adv-x="528" d="M-82 1225v239h275v-239h-275zM119 0v1059h291v-1059h-291zM338 1225v239h276v-239h-276z" />
<glyph unicode="&#xf0;" horiz-adv-x="1251" d="M78 506q0 94 27.5 189.5t85 171t146.5 122.5t212 47q59 0 132 -16t144 -66h4q-37 86 -97 150.5t-111 109.5l-230 -114l-119 114l220 111q-45 33 -88.5 57.5t-84.5 44.5l189 142q111 -61 203 -135l252 127l106 -121l-233 -117q164 -158 252 -342t86 -422 q-2 -127 -41 -233.5t-110 -185.5t-172 -123t-226 -44t-225.5 39t-172 110t-110.5 169t-39 215zM369 528q0 -63 12 -123.5t42 -108.5t79 -77t123 -29t124 29t79.5 77t42 108.5t12.5 123.5q0 57 -14.5 112.5t-45 100.5t-81 73t-119.5 28q-72 0 -120 -28t-78 -73t-43 -101 t-13 -112z" />
<glyph unicode="&#xf1;" horiz-adv-x="1214" d="M111 0v1059h276v-148h6q55 92 143.5 134t180.5 42q117 0 191.5 -31.5t117.5 -88t60.5 -137t17.5 -179.5v-651h-291v598q0 131 -41 195.5t-145 64.5q-119 0 -172.5 -70.5t-53.5 -232.5v-555h-290zM233 1227q6 45 23.5 89t48.5 80t73 58.5t95 22.5q31 0 61.5 -7.5 t86.5 -29.5q35 -14 68.5 -24.5t64.5 -10.5q37 0 57 15.5t33 56.5h141q-10 -43 -23.5 -84t-38 -74t-64.5 -53.5t-103 -22.5q-39 -2 -71 5t-95 30q-51 18 -80 26.5t-59 8.5q-39 0 -60.5 -23.5t-32.5 -62.5h-125z" />
<glyph unicode="&#xf2;" horiz-adv-x="1251" d="M78 528q0 127 39 230.5t110.5 176.5t172 112.5t225.5 39.5t226 -39.5t173 -112.5t111 -176.5t39 -230.5t-39 -229t-111 -174t-173 -112t-226 -40t-225.5 40t-172 112t-110.5 174t-39 229zM215 1497h322l196 -291h-203zM369 528q0 -63 12 -123.5t42 -108.5t79 -77t123 -29 t124 29t79.5 77t42 108.5t12.5 123.5t-12.5 125t-42 109t-80 76.5t-123.5 29.5q-74 0 -123 -29.5t-79 -76.5t-42 -109t-12 -125z" />
<glyph unicode="&#xf3;" horiz-adv-x="1251" d="M78 528q0 127 39 230.5t110.5 176.5t172 112.5t225.5 39.5t226 -39.5t173 -112.5t111 -176.5t39 -230.5t-39 -229t-111 -174t-173 -112t-226 -40t-225.5 40t-172 112t-110.5 174t-39 229zM369 528q0 -63 12 -123.5t42 -108.5t79 -77t123 -29t124 29t79.5 77t42 108.5 t12.5 123.5t-12.5 125t-42 109t-80 76.5t-123.5 29.5q-74 0 -123 -29.5t-79 -76.5t-42 -109t-12 -125zM514 1206l197 291h321l-315 -291h-203z" />
<glyph unicode="&#xf4;" horiz-adv-x="1251" d="M78 528q0 127 39 230.5t110.5 176.5t172 112.5t225.5 39.5t226 -39.5t173 -112.5t111 -176.5t39 -230.5t-39 -229t-111 -174t-173 -112t-226 -40t-225.5 40t-172 112t-110.5 174t-39 229zM270 1206l228 291h266l225 -291h-239l-127 166l-131 -166h-222zM369 528 q0 -63 12 -123.5t42 -108.5t79 -77t123 -29t124 29t79.5 77t42 108.5t12.5 123.5t-12.5 125t-42 109t-80 76.5t-123.5 29.5q-74 0 -123 -29.5t-79 -76.5t-42 -109t-12 -125z" />
<glyph unicode="&#xf5;" horiz-adv-x="1251" d="M78 528q0 127 39 230.5t110.5 176.5t172 112.5t225.5 39.5t226 -39.5t173 -112.5t111 -176.5t39 -230.5t-39 -229t-111 -174t-173 -112t-226 -40t-225.5 40t-172 112t-110.5 174t-39 229zM252 1227q6 45 23.5 89t48 80t72.5 58.5t96 22.5q31 0 61.5 -7.5t85.5 -29.5 q35 -14 68.5 -24.5t64.5 -10.5q37 0 57.5 15.5t32.5 56.5h142q-10 -43 -23.5 -84t-38 -74t-64.5 -53.5t-104 -22.5q-39 -2 -70.5 5t-95.5 30q-51 18 -79.5 26.5t-59.5 8.5q-39 0 -60.5 -23.5t-31.5 -62.5h-125zM369 528q0 -63 12 -123.5t42 -108.5t79 -77t123 -29t124 29 t79.5 77t42 108.5t12.5 123.5t-12.5 125t-42 109t-80 76.5t-123.5 29.5q-74 0 -123 -29.5t-79 -76.5t-42 -109t-12 -125z" />
<glyph unicode="&#xf6;" horiz-adv-x="1251" d="M78 528q0 127 39 230.5t110.5 176.5t172 112.5t225.5 39.5t226 -39.5t173 -112.5t111 -176.5t39 -230.5t-39 -229t-111 -174t-173 -112t-226 -40t-225.5 40t-172 112t-110.5 174t-39 229zM279 1225v239h276v-239h-276zM369 528q0 -63 12 -123.5t42 -108.5t79 -77t123 -29 t124 29t79.5 77t42 108.5t12.5 123.5t-12.5 125t-42 109t-80 76.5t-123.5 29.5q-74 0 -123 -29.5t-79 -76.5t-42 -109t-12 -125zM700 1225v239h277v-239h-277z" />
<glyph unicode="&#xf7;" horiz-adv-x="1228" d="M98 408v219h1035v-219h-1035zM442 92q0 37 14.5 67.5t38 54.5t55.5 37t66 13q35 0 66 -13t54.5 -37t37.5 -54.5t14 -67.5q0 -33 -14 -63.5t-36.5 -55t-54.5 -39t-65 -14.5q-37 0 -68.5 14.5t-55 38t-38 54t-14.5 65.5zM442 942q0 74 52.5 124t121.5 50q35 0 66 -13 t54.5 -37t37.5 -55.5t14 -68.5q0 -33 -14 -63.5t-36.5 -55t-54.5 -39t-65 -14.5q-37 0 -68.5 13.5t-55 37t-38 55t-14.5 66.5z" />
<glyph unicode="&#xf8;" horiz-adv-x="1251" d="M78 528q0 127 39 230.5t110.5 176.5t172 112.5t225.5 39.5q195 0 333 -98l109 125l76 -65l-111 -125q68 -72 105 -172.5t37 -223.5q0 -127 -39 -229t-111 -174t-173 -112t-226 -40q-201 0 -338 101l-121 -135l-76 63l123 139q-135 147 -135 387zM369 528q0 -47 7 -92 t23 -84l396 451q-61 66 -170 65q-74 0 -123 -29.5t-79 -76.5t-42 -108.5t-12 -125.5zM451 260q29 -33 71.5 -51.5t102.5 -18.5q74 0 124 29t79.5 77t42 108.5t12.5 123.5q0 49 -8.5 97.5t-24.5 89.5z" />
<glyph unicode="&#xf9;" horiz-adv-x="1214" d="M111 408v651h290v-598q0 -131 41 -195.5t146 -64.5q119 0 172 70.5t53 232.5v555h291v-1059h-277v147h-6q-55 -92 -143 -133t-180 -41q-117 0 -192 31t-118 88.5t-60 137t-17 178.5zM199 1497h321l197 -291h-203z" />
<glyph unicode="&#xfa;" horiz-adv-x="1214" d="M111 408v651h290v-598q0 -131 41 -195.5t146 -64.5q119 0 172 70.5t53 232.5v555h291v-1059h-277v147h-6q-55 -92 -143 -133t-180 -41q-117 0 -192 31t-118 88.5t-60 137t-17 178.5zM496 1206l196 291h322l-316 -291h-202z" />
<glyph unicode="&#xfb;" horiz-adv-x="1214" d="M111 408v651h290v-598q0 -131 41 -195.5t146 -64.5q119 0 172 70.5t53 232.5v555h291v-1059h-277v147h-6q-55 -92 -143 -133t-180 -41q-117 0 -192 31t-118 88.5t-60 137t-17 178.5zM252 1206l227 291h266l226 -291h-240l-127 166l-131 -166h-221z" />
<glyph unicode="&#xfc;" horiz-adv-x="1214" d="M111 408v651h290v-598q0 -131 41 -195.5t146 -64.5q119 0 172 70.5t53 232.5v555h291v-1059h-277v147h-6q-55 -92 -143 -133t-180 -41q-117 0 -192 31t-118 88.5t-60 137t-17 178.5zM262 1225v239h277v-239h-277zM684 1225v239h277v-239h-277z" />
<glyph unicode="&#xfd;" horiz-adv-x="1062" d="M-10 1059h309l240 -725h4l231 725h301l-442 -1190q-47 -129 -131 -184.5t-234 -55.5q-45 0 -89 3t-89 8v239q41 -4 84 -9t86 -1q57 4 85 44t28 87q0 35 -13 66zM432 1206l197 291h321l-315 -291h-203z" />
<glyph unicode="&#xfe;" horiz-adv-x="1251" d="M111 -371v1833h290v-538h5q53 86 132.5 124.5t168.5 38.5q125 0 215 -47t149 -124.5t88 -181t29 -216.5q0 -106 -29 -204.5t-87 -174.5t-145 -121t-204 -45q-98 0 -181 40t-136 118h-5v-502h-290zM391 526q0 -66 13.5 -126t43 -106t77.5 -75t120 -29t120 29t77.5 75 t42 106t12.5 126q0 63 -13.5 125t-44 110t-78.5 77.5t-118 29.5q-72 0 -120 -29.5t-77.5 -76.5t-42 -109.5t-12.5 -126.5z" />
<glyph unicode="&#xff;" horiz-adv-x="1062" d="M-10 1059h309l240 -725h4l231 725h301l-442 -1190q-47 -129 -131 -184.5t-234 -55.5q-45 0 -89 3t-89 8v239q41 -4 84 -9t86 -1q57 4 85 44t28 87q0 35 -13 66zM193 1225v239h276v-239h-276zM614 1225v239h277v-239h-277z" />
<glyph unicode="&#x152;" horiz-adv-x="2238" d="M78 723q0 152 46 292t134 247.5t215 171t291 63.5q96 0 190.5 -30.5t155.5 -108.5h4v104h1024v-270h-725v-313h664v-250h-664v-359h739v-270h-1038v111h-4q-66 -72 -160 -108t-192 -36q-164 0 -290 61.5t-213 165t-132 240.5t-45 289zM399 727q0 -90 20.5 -178 t66.5 -157.5t119 -112.5t175 -43q147 0 234.5 92t87.5 241v349q0 70 -23.5 126t-65.5 97t-100.5 63.5t-126.5 22.5q-106 0 -180 -44t-120 -115t-66.5 -160t-20.5 -181z" />
<glyph unicode="&#x153;" horiz-adv-x="1896" d="M78 535q0 117 37 218t104.5 174.5t163.5 116.5t215 43q104 0 204.5 -37.5t160.5 -129.5q27 39 67.5 70.5t88.5 53t99.5 32.5t98.5 11q141 0 239.5 -51t161 -137t91 -200.5t28.5 -239.5h-756q0 -115 62.5 -192t189.5 -77q80 0 132.5 37t80.5 109h283 q-51 -174 -183.5 -268.5t-312.5 -94.5q-111 0 -216 40t-167 139q-29 -49 -70.5 -83t-92 -55.5t-104.5 -31t-108 -9.5q-123 0 -216 45t-155.5 122t-94 179.5t-31.5 215.5zM369 524q0 -55 10 -113.5t36.5 -107.5t69.5 -81t109 -32q74 0 119 32t70.5 82t34.5 110.5t9 117.5 q0 53 -8 113t-32.5 109t-68.5 81.5t-118 32.5q-68 0 -112 -30.5t-70.5 -79.5t-37.5 -110.5t-11 -123.5zM1081 643h465q-4 104 -61.5 164.5t-173.5 60.5q-111 0 -168.5 -65.5t-61.5 -159.5z" />
<glyph unicode="&#x178;" horiz-adv-x="1366" d="M-16 1462h360l342 -577l340 577h358l-542 -901v-561h-322v569zM338 1614v239h276v-239h-276zM760 1614v239h276v-239h-276z" />
<glyph unicode="&#x2c6;" horiz-adv-x="530" d="M-92 1206l225 291h266l226 -291h-240l-127 166l-131 -166h-219z" />
<glyph unicode="&#x2dc;" horiz-adv-x="530" d="M-109 1227q6 45 23.5 89t48.5 80t72 58.5t94 22.5q31 0 61.5 -7.5t85.5 -29.5q35 -14 69 -24.5t65 -10.5q37 0 57 15.5t33 56.5h141q-10 -43 -23.5 -84t-38 -74t-64.5 -53.5t-103 -22.5q-39 -2 -71 5t-95 30q-51 18 -80 26.5t-60 8.5q-39 0 -60 -23.5t-32 -62.5h-123z " />
<glyph unicode="&#x2000;" horiz-adv-x="1011" />
<glyph unicode="&#x2001;" horiz-adv-x="2023" />
<glyph unicode="&#x2002;" horiz-adv-x="1011" />
<glyph unicode="&#x2003;" horiz-adv-x="2023" />
<glyph unicode="&#x2004;" horiz-adv-x="674" />
<glyph unicode="&#x2005;" horiz-adv-x="505" />
<glyph unicode="&#x2006;" horiz-adv-x="337" />
<glyph unicode="&#x2007;" horiz-adv-x="337" />
<glyph unicode="&#x2008;" horiz-adv-x="252" />
<glyph unicode="&#x2009;" horiz-adv-x="404" />
<glyph unicode="&#x200a;" horiz-adv-x="112" />
<glyph unicode="&#x2010;" horiz-adv-x="833" d="M109 434v250h616v-250h-616z" />
<glyph unicode="&#x2011;" horiz-adv-x="833" d="M109 434v250h616v-250h-616z" />
<glyph unicode="&#x2012;" horiz-adv-x="833" d="M109 434v250h616v-250h-616z" />
<glyph unicode="&#x2013;" horiz-adv-x="1024" d="M0 434v250h1024v-250h-1024z" />
<glyph unicode="&#x2014;" horiz-adv-x="2048" d="M266 434v250h1516v-250h-1516z" />
<glyph unicode="&#x2018;" horiz-adv-x="569" d="M139 805v313q0 68 21.5 127.5t60.5 104.5t92.5 74.5t116.5 37.5v-135q-78 -27 -106.5 -79t-28.5 -128h135v-315h-291z" />
<glyph unicode="&#x2019;" horiz-adv-x="569" d="M139 805v135q78 27 106.5 79t28.5 128h-135v315h291v-313q0 -68 -21.5 -127t-60.5 -104.5t-92 -75t-117 -37.5z" />
<glyph unicode="&#x201a;" horiz-adv-x="569" d="M139 0v315h291v-313q0 -68 -21.5 -126t-60.5 -103t-92 -75t-117 -38v135q78 27 106.5 79t28.5 126h-135z" />
<glyph unicode="&#x201c;" horiz-adv-x="948" d="M111 805v313q0 68 21.5 127.5t60 104.5t92 74.5t116.5 37.5v-135q-78 -27 -106.5 -79t-28.5 -128h135v-315h-290zM547 805v313q0 68 21.5 127.5t60.5 104.5t92 74.5t117 37.5v-135q-78 -27 -107 -79t-29 -128h136v-315h-291z" />
<glyph unicode="&#x201d;" horiz-adv-x="948" d="M111 805v135q78 27 106.5 79t28.5 128h-135v315h290v-313q0 -68 -21.5 -127t-60 -104.5t-92 -75t-116.5 -37.5zM547 805v135q78 27 106.5 79t28.5 128h-135v315h291v-313q0 -68 -21.5 -127t-60.5 -104.5t-92.5 -75t-116.5 -37.5z" />
<glyph unicode="&#x201e;" horiz-adv-x="948" d="M111 0v315h290v-313q0 -68 -21.5 -126t-60 -103t-92 -75t-116.5 -38v135q78 27 106.5 79t28.5 126h-135zM547 0v315h291v-313q0 -68 -21.5 -126t-60.5 -103t-92.5 -75t-116.5 -38v135q78 27 106.5 79t28.5 126h-135z" />
<glyph unicode="&#x2022;" horiz-adv-x="1026" d="M147 731q0 76 29 142.5t78 115.5t115.5 78t142.5 29t142.5 -29t116.5 -78t79 -115.5t29 -142.5t-29 -142.5t-79 -116.5t-116.5 -78.5t-142.5 -28.5t-142.5 28.5t-115.5 78.5t-78 116.5t-29 142.5z" />
<glyph unicode="&#x2026;" horiz-adv-x="2048" d="M180 0v315h322v-315h-322zM862 0v315h322v-315h-322zM1544 0v315h322v-315h-322z" />
<glyph unicode="&#x202f;" horiz-adv-x="404" />
<glyph unicode="&#x2039;" horiz-adv-x="493" d="M86 420v276l322 252v-246l-185 -145l185 -147v-246z" />
<glyph unicode="&#x203a;" horiz-adv-x="493" d="M86 164v246l184 147l-184 145v246l322 -252v-276z" />
<glyph unicode="&#x205f;" horiz-adv-x="505" />
<glyph unicode="&#x20ac;" d="M31 784l63 148h105q49 246 202 391q162 156 406 156q172 0 373 -103l-125 -256q-145 92 -269 92q-215 0 -286 -280h499l-63 -148h-459l-2 -86h436l-63 -147h-356q66 -324 303 -324q152 0 315 129l-2 -309q-139 -80 -315 -80q-262 0 -416 166q-143 150 -187 418h-157 l63 147h82v54q0 27 2 32h-149z" />
<glyph unicode="&#x2122;" horiz-adv-x="2048" d="M127 1298v164h688v-164h-240v-680h-208v680h-240zM924 618v844h278l211 -555l211 555h277v-844h-197v599h-4l-217 -599h-142l-217 599h-4v-599h-196z" />
<glyph unicode="&#xe000;" horiz-adv-x="1054" d="M0 0v1055h1055v-1055h-1055z" />
<glyph unicode="&#xfb01;" horiz-adv-x="1251" d="M0 864v195h174v82q0 141 88 231t266 90q39 0 78 -3t76 -5v-217q-53 6 -107 6q-59 0 -84.5 -27.5t-25.5 -93.5v-63h201v-195h-201v-864h-291v864h-174zM842 0v1059h291v-1059h-291zM842 1223v239h291v-239h-291z" />
<glyph unicode="&#xfb02;" horiz-adv-x="1251" d="M0 864v195h174v82q0 141 88 231t266 90q39 0 78 -3t76 -5v-217q-53 6 -107 6q-59 0 -84.5 -27.5t-25.5 -93.5v-63h201v-195h-201v-864h-291v864h-174zM842 0v1462h291v-1462h-291z" />
</font>
</defs>
</svg>
